<?xml version="1.0" encoding="utf-8"?>
<svg version="1.1" xmlns:xlink="http://www.w3.org/1999/xlink" width="30px" height="30px" xmlns="http://www.w3.org/2000/svg">
  <g transform="matrix(1 0 0 1 -1319 -68 )">
    <path d="M 27.87109375 10.87890625  L 25.05859375 8.06640625  L 18.125 15  L 25.05859375 21.93359375  L 27.87109375 19.12109375  C 28.2486979166667 18.7174479166667  28.7044270833333 18.6263020833333  29.23828125 18.84765625  C 29.74609375 19.0690104166667  30 19.453125  30 20  L 30 28.75  C 30 29.0885416666667  29.8763020833333 29.3815104166667  29.62890625 29.62890625  C 29.3815104166667 29.8763020833333  29.0885416666667 30  28.75 30  L 20 30  C 19.453125 30  19.0690104166667 29.7395833333333  18.84765625 29.21875  C 18.6263020833333 28.7109375  18.7174479166667 28.26171875  19.12109375 27.87109375  L 21.93359375 25.05859375  L 15 18.125  L 8.06640625 25.05859375  L 10.87890625 27.87109375  C 11.2825520833333 28.26171875  11.3736979166667 28.7109375  11.15234375 29.21875  C 10.9309895833333 29.7395833333333  10.546875 30  10 30  L 1.25 30  C 0.911458333333333 30  0.618489583333333 29.8763020833333  0.37109375 29.62890625  C 0.123697916666667 29.3815104166667  0 29.0885416666667  0 28.75  L 0 20  C 0 19.453125  0.260416666666667 19.0690104166667  0.78125 18.84765625  C 1.2890625 18.6263020833333  1.73828125 18.7174479166667  2.12890625 19.12109375  L 4.94140625 21.93359375  L 11.875 15  L 4.94140625 8.06640625  L 2.12890625 10.87890625  C 1.88151041666667 11.1263020833333  1.58854166666667 11.25  1.25 11.25  C 1.09375 11.25  0.9375 11.2174479166667  0.78125 11.15234375  C 0.260416666666667 10.9309895833333  0 10.546875  0 10  L 0 1.25  C 0 0.911458333333329  0.123697916666667 0.618489583333329  0.37109375 0.371093749999999  C 0.618489583333333 0.123697916666665  0.911458333333333 0  1.25 0  L 10 0  C 10.546875 0  10.9309895833333 0.260416666666664  11.15234375 0.781249999999999  C 11.3736979166667 1.2890625  11.2825520833333 1.73828125  10.87890625 2.12890625  L 8.06640625 4.94140625  L 15 11.875  L 21.93359375 4.94140625  L 19.12109375 2.12890625  C 18.7174479166667 1.73828125  18.6263020833333 1.2890625  18.84765625 0.781249999999999  C 19.0690104166667 0.260416666666664  19.453125 0  20 0  L 28.75 0  C 29.0885416666667 0  29.3815104166667 0.123697916666665  29.62890625 0.371093749999999  C 29.8763020833333 0.618489583333329  30 0.911458333333329  30 1.25  L 30 10  C 30 10.546875  29.74609375 10.9309895833333  29.23828125 11.15234375  C 29.0690104166667 11.2174479166667  28.90625 11.25  28.75 11.25  C 28.4114583333333 11.25  28.1184895833333 11.1263020833333  27.87109375 10.87890625  Z " fill-rule="nonzero" fill="#000000" stroke="none" transform="matrix(1 0 0 1 1319 68 )" />
  </g>
</svg>