<?xml version="1.0" encoding="utf-8"?>
<svg version="1.1" xmlns:xlink="http://www.w3.org/1999/xlink" width="50px" height="50px" xmlns="http://www.w3.org/2000/svg">
  <g transform="matrix(1 0 0 1 -858 -297 )">
    <path d="M 13.4615384615385 37.5  C 13.4615384615385 37.7604166666667  13.3713942307692 37.9907852564103  13.1911057692308 38.1911057692308  L 5.49879807692308 45.8834134615385  C 5.27844551282051 46.0637019230769  5.04807692307692 46.1538461538462  4.80769230769231 46.1538461538462  C 4.56730769230769 46.1538461538462  4.3369391025641 46.0637019230769  4.11658653846154 45.8834134615385  C 3.93629807692308 45.6830929487179  3.84615384615385 45.4527243589744  3.84615384615385 45.1923076923077  C 3.84615384615385 44.931891025641  3.93629807692308 44.7015224358974  4.11658653846154 44.5012019230769  L 11.8088942307692 36.8088942307692  C 12.0092147435897 36.6286057692308  12.2395833333333 36.5384615384615  12.5 36.5384615384615  C 12.7604166666667 36.5384615384615  12.9907852564103 36.6286057692308  13.1911057692308 36.8088942307692  C 13.3713942307692 37.0092147435897  13.4615384615385 37.2395833333333  13.4615384615385 37.5  Z M 17.9987980769231 38.7319711538462  C 18.1790865384615 38.9122596153846  18.2692307692308 39.1426282051282  18.2692307692308 39.4230769230769  L 18.2692307692308 49.0384615384615  C 18.2692307692308 49.3189102564103  18.1790865384615 49.5492788461538  17.9987980769231 49.7295673076923  C 17.8185096153846 49.9098557692308  17.588141025641 50  17.3076923076923 50  C 17.0272435897436 50  16.796875 49.9098557692308  16.6165865384615 49.7295673076923  C 16.4362980769231 49.5492788461538  16.3461538461538 49.3189102564103  16.3461538461538 49.0384615384615  L 16.3461538461538 39.4230769230769  C 16.3461538461538 39.1426282051282  16.4362980769231 38.9122596153846  16.6165865384615 38.7319711538462  C 16.796875 38.5516826923077  17.0272435897436 38.4615384615385  17.3076923076923 38.4615384615385  C 17.588141025641 38.4615384615385  17.8185096153846 38.5516826923077  17.9987980769231 38.7319711538462  Z M 11.2680288461538 32.0012019230769  C 11.4483173076923 32.1814903846154  11.5384615384615 32.411858974359  11.5384615384615 32.6923076923077  C 11.5384615384615 32.9727564102564  11.4483173076923 33.203125  11.2680288461538 33.3834134615385  C 11.0877403846154 33.5637019230769  10.8573717948718 33.6538461538462  10.5769230769231 33.6538461538462  L 0.961538461538462 33.6538461538462  C 0.681089743589744 33.6538461538462  0.450721153846154 33.5637019230769  0.270432692307692 33.3834134615385  C 0.0901442307692308 33.203125  0 32.9727564102564  0 32.6923076923077  C 0 32.411858974359  0.0901442307692308 32.1814903846154  0.270432692307692 32.0012019230769  C 0.450721153846154 31.8209134615385  0.681089743589744 31.7307692307692  0.961538461538462 31.7307692307692  L 10.5769230769231 31.7307692307692  C 10.8573717948718 31.7307692307692  11.0877403846154 31.8209134615385  11.2680288461538 32.0012019230769  Z M 46.9951923076923 30.4086538461538  C 48.6778846153846 32.1314102564103  49.5192307692308 34.1746794871795  49.5192307692308 36.5384615384615  C 49.5192307692308 38.9423076923077  48.6678685897436 40.9755608974359  46.9651442307692 42.6382211538462  L 42.5480769230769 47.0252403846154  C 40.8854166666667 48.6879006410256  38.8521634615385 49.5192307692308  36.4483173076923 49.5192307692308  C 34.0244391025641 49.5192307692308  31.9811698717949 48.6678685897436  30.3185096153846 46.9651442307692  L 20.2824519230769 36.8990384615385  C 19.8617788461538 36.4783653846154  19.4411057692308 35.9174679487179  19.0204326923077 35.2163461538462  L 26.2019230769231 34.6754807692308  L 34.4050480769231 42.9086538461538  C 34.9459134615385 43.4495192307692  35.6270032051282 43.7249599358974  36.4483173076923 43.7349759615385  C 37.2696314102564 43.7449919871795  37.9507211538462 43.4795673076923  38.4915865384615 42.9387019230769  L 42.9086538461538 38.5516826923077  C 43.4695512820513 37.9907852564103  43.75 37.3197115384615  43.75 36.5384615384615  C 43.75 35.7371794871795  43.4695512820513 35.0560897435897  42.9086538461538 34.4951923076923  L 34.6754807692308 26.2319711538462  L 35.2163461538462 19.0504807692308  C 35.9174679487179 19.4711538461538  36.4783653846154 19.8918269230769  36.8990384615385 20.3125  L 46.9951923076923 30.4086538461538  Z M 29.7175480769231 13.1009615384615  C 30.1382211538462 13.5216346153846  30.5588942307692 14.082532051282  30.9795673076923 14.7836538461538  L 23.7980769230769 15.3245192307692  L 15.5949519230769 7.09134615384616  C 15.0340544871795 6.53044871794872  14.3529647435897 6.25  13.5516826923077 6.25  C 12.7704326923077 6.25  12.089342948718 6.52043269230769  11.5084134615385 7.06129807692308  L 7.09134615384615 11.4483173076923  C 6.53044871794872 12.0092147435897  6.25 12.6802884615385  6.25 13.4615384615385  C 6.25 14.2628205128205  6.53044871794872 14.9439102564103  7.09134615384615 15.5048076923077  L 15.3245192307692 23.7379807692308  L 14.7836538461538 30.9495192307692  C 14.0825320512821 30.5288461538462  13.5216346153846 30.1081730769231  13.1009615384615 29.6875  L 3.00480769230769 19.5913461538462  C 1.32211538461538 17.8685897435897  0.480769230769231 15.8253205128205  0.480769230769231 13.4615384615385  C 0.480769230769231 11.0576923076923  1.33213141025641 9.0244391025641  3.03485576923077 7.36177884615384  L 7.45192307692308 2.97475961538461  C 9.11458333333333 1.31209935897436  11.1478365384615 0.480769230769229  13.5516826923077 0.480769230769229  C 15.9755608974359 0.480769230769229  18.0188301282051 1.33213141025641  19.6814903846154 3.03485576923077  L 29.7175480769231 13.1009615384615  Z M 49.7295673076923 16.6165865384615  C 49.9098557692308 16.796875  50 17.0272435897436  50 17.3076923076923  C 50 17.588141025641  49.9098557692308 17.8185096153846  49.7295673076923 17.9987980769231  C 49.5492788461538 18.1790865384615  49.3189102564103 18.2692307692308  49.0384615384615 18.2692307692308  L 39.4230769230769 18.2692307692308  C 39.1426282051282 18.2692307692308  38.9122596153846 18.1790865384615  38.7319711538462 17.9987980769231  C 38.5516826923077 17.8185096153846  38.4615384615385 17.588141025641  38.4615384615385 17.3076923076923  C 38.4615384615385 17.0272435897436  38.5516826923077 16.796875  38.7319711538462 16.6165865384615  C 38.9122596153846 16.4362980769231  39.1426282051282 16.3461538461538  39.4230769230769 16.3461538461538  L 49.0384615384615 16.3461538461538  C 49.3189102564103 16.3461538461538  49.5492788461538 16.4362980769231  49.7295673076923 16.6165865384615  Z M 33.3834134615385 0.270432692307693  C 33.5637019230769 0.450721153846156  33.6538461538462 0.681089743589741  33.6538461538462 0.961538461538464  L 33.6538461538462 10.5769230769231  C 33.6538461538462 10.8573717948718  33.5637019230769 11.0877403846154  33.3834134615385 11.2680288461538  C 33.203125 11.4483173076923  32.9727564102564 11.5384615384615  32.6923076923077 11.5384615384615  C 32.411858974359 11.5384615384615  32.1814903846154 11.4483173076923  32.0012019230769 11.2680288461538  C 31.8209134615385 11.0877403846154  31.7307692307692 10.8573717948718  31.7307692307692 10.5769230769231  L 31.7307692307692 0.961538461538464  C 31.7307692307692 0.681089743589741  31.8209134615385 0.450721153846156  32.0012019230769 0.270432692307693  C 32.1814903846154 0.0901442307692291  32.411858974359 0  32.6923076923077 0  C 32.9727564102564 0  33.203125 0.0901442307692291  33.3834134615385 0.270432692307693  Z M 46.1538461538462 4.80769230769231  C 46.1538461538462 5.06810897435897  46.0637019230769 5.29847756410256  45.8834134615385 5.49879807692308  L 38.1911057692308 13.1911057692308  C 37.9707532051282 13.3713942307692  37.7403846153846 13.4615384615385  37.5 13.4615384615385  C 37.2596153846154 13.4615384615385  37.0292467948718 13.3713942307692  36.8088942307692 13.1911057692308  C 36.6286057692308 12.9907852564103  36.5384615384615 12.7604166666667  36.5384615384615 12.5  C 36.5384615384615 12.2395833333333  36.6286057692308 12.0092147435897  36.8088942307692 11.8088942307692  L 44.5012019230769 4.11658653846154  C 44.7015224358974 3.93629807692308  44.931891025641 3.84615384615384  45.1923076923077 3.84615384615384  C 45.4527243589744 3.84615384615384  45.6830929487179 3.93629807692308  45.8834134615385 4.11658653846154  C 46.0637019230769 4.31690705128205  46.1538461538462 4.54727564102564  46.1538461538462 4.80769230769231  Z " fill-rule="nonzero" fill="#000000" stroke="none" transform="matrix(1 0 0 1 858 297 )" />
  </g>
</svg>