<?xml version="1.0" encoding="utf-8"?>
<!-- Generator: Adobe Illustrator 16.0.0, SVG Export Plug-In . SVG Version: 6.00 Build 0)  -->
<!DOCTYPE svg PUBLIC "-//W3C//DTD SVG 1.1//EN" "http://www.w3.org/Graphics/SVG/1.1/DTD/svg11.dtd">
<svg version="1.1" id="图层_1" xmlns="http://www.w3.org/2000/svg" xmlns:xlink="http://www.w3.org/1999/xlink" x="0px" y="0px"
	 width="1920px" height="1080px" viewBox="0 0 1920 1080" enable-background="new 0 0 1920 1080" xml:space="preserve">
<linearGradient id="SVGID_1_" gradientUnits="userSpaceOnUse" x1="-989.6797" y1="2215.9199" x2="-989.6797" y2="3295.9209" gradientTransform="matrix(1 0 0 1 1949.6797 -2215.9199)">
	<stop  offset="0" style="stop-color:#00040D"/>
	<stop  offset="1" style="stop-color:#002354"/>
</linearGradient>
<rect fill="url(#SVGID_1_)" width="1920" height="1080.001"/>
<g opacity="0.2">
	
		<line opacity="0.3" fill="none" stroke="#66FFFF" stroke-miterlimit="10" enable-background="new    " x1="-1.557" y1="508.235" x2="1917.021" y2="508.235"/>
	
		<line opacity="0.3" fill="none" stroke="#66FFFF" stroke-miterlimit="10" enable-background="new    " x1="-1.557" y1="571.765" x2="1917.021" y2="571.765"/>
	
		<line opacity="0.3" fill="none" stroke="#66FFFF" stroke-miterlimit="10" enable-background="new    " x1="-1.347" y1="635.294" x2="1917.229" y2="635.294"/>
	
		<line opacity="0.3" fill="none" stroke="#66FFFF" stroke-miterlimit="10" enable-background="new    " x1="-1.347" y1="698.823" x2="1917.229" y2="698.823"/>
	
		<line opacity="0.3" fill="none" stroke="#66FFFF" stroke-miterlimit="10" enable-background="new    " x1="-1.557" y1="762.353" x2="1917.021" y2="762.353"/>
	
		<line opacity="0.3" fill="none" stroke="#66FFFF" stroke-miterlimit="10" enable-background="new    " x1="-1.557" y1="825.883" x2="1917.021" y2="825.883"/>
	
		<line opacity="0.3" fill="none" stroke="#66FFFF" stroke-miterlimit="10" enable-background="new    " x1="-1.348" y1="889.412" x2="1917.229" y2="889.412"/>
	
		<line opacity="0.3" fill="none" stroke="#66FFFF" stroke-miterlimit="10" enable-background="new    " x1="-1.451" y1="952.94" x2="1917.127" y2="952.94"/>
	
		<line opacity="0.3" fill="none" stroke="#66FFFF" stroke-miterlimit="10" enable-background="new    " x1="-1.241" y1="1016.471" x2="1917.336" y2="1016.471"/>
	
		<line opacity="0.3" fill="none" stroke="#66FFFF" stroke-miterlimit="10" enable-background="new    " x1="-1.241" y1="1080" x2="1917.336" y2="1080"/>
	
		<line opacity="0.3" fill="none" stroke="#66FFFF" stroke-miterlimit="10" enable-background="new    " x1="-1.398" y1="0" x2="1917.179" y2="0"/>
	
		<line opacity="0.3" fill="none" stroke="#66FFFF" stroke-miterlimit="10" enable-background="new    " x1="-1.188" y1="63.529" x2="1917.388" y2="63.529"/>
	
		<line opacity="0.3" fill="none" stroke="#66FFFF" stroke-miterlimit="10" enable-background="new    " x1="-1.398" y1="127.059" x2="1917.179" y2="127.059"/>
	
		<line opacity="0.3" fill="none" stroke="#66FFFF" stroke-miterlimit="10" enable-background="new    " x1="-1.398" y1="190.588" x2="1917.179" y2="190.588"/>
	
		<line opacity="0.3" fill="none" stroke="#66FFFF" stroke-miterlimit="10" enable-background="new    " x1="-1.189" y1="254.118" x2="1917.388" y2="254.118"/>
	
		<line opacity="0.3" fill="none" stroke="#66FFFF" stroke-miterlimit="10" enable-background="new    " x1="-1.293" y1="317.647" x2="1917.285" y2="317.647"/>
	
		<line opacity="0.3" fill="none" stroke="#66FFFF" stroke-miterlimit="10" enable-background="new    " x1="-1.083" y1="381.176" x2="1917.494" y2="381.176"/>
	
		<line opacity="0.3" fill="none" stroke="#66FFFF" stroke-miterlimit="10" enable-background="new    " x1="-1.083" y1="444.706" x2="1917.494" y2="444.706"/>
</g>
<g opacity="0.05">
	<line fill="none" stroke="#CCFFFF" stroke-miterlimit="10" x1="-1.557" y1="762.353" x2="190.588" y2="1083.285"/>
	<line fill="none" stroke="#CCFFFF" stroke-miterlimit="10" x1="-1.347" y1="635.294" x2="279.333" y2="1083.435"/>
	<line fill="none" stroke="#CCFFFF" stroke-miterlimit="10" x1="-1.557" y1="508.235" x2="381.177" y2="1083.285"/>
	<line fill="none" stroke="#CCFFFF" stroke-miterlimit="10" x1="-1.083" y1="381.176" x2="508.234" y2="1083.168"/>
	<line fill="none" stroke="#CCFFFF" stroke-miterlimit="10" x1="0" y1="244.35" x2="635.294" y2="1083.435"/>
	<line fill="none" stroke="#CCFFFF" stroke-miterlimit="10" x1="-1.398" y1="127.059" x2="762.354" y2="1083.317"/>
	<line fill="none" stroke="#CCFFFF" stroke-miterlimit="10" x1="0" y1="1.905" x2="889.412" y2="1083.257"/>
	<line fill="none" stroke="#CCFFFF" stroke-miterlimit="10" x1="127.059" y1="1.788" x2="1016.471" y2="1083.375"/>
	<line fill="none" stroke="#CCFFFF" stroke-miterlimit="10" x1="254.117" y1="1.728" x2="1155.417" y2="1082.508"/>
	<line fill="none" stroke="#CCFFFF" stroke-miterlimit="10" x1="381.177" y1="1.846" x2="1280.5" y2="1080"/>
	<line fill="none" stroke="#CCFFFF" stroke-miterlimit="10" x1="508.234" y1="1.728" x2="1399.314" y2="1082.241"/>
	<line fill="none" stroke="#CCFFFF" stroke-miterlimit="10" x1="635.294" y1="1.994" x2="1526.374" y2="1082.358"/>
	<line fill="none" stroke="#CCFFFF" stroke-miterlimit="10" x1="762.354" y1="1.876" x2="1670.305" y2="1092.5"/>
	<line fill="none" stroke="#CCFFFF" stroke-miterlimit="10" x1="889.412" y1="1.817" x2="1780.491" y2="1082.508"/>
	<line fill="none" stroke="#CCFFFF" stroke-miterlimit="10" x1="1016.471" y1="1.936" x2="1917.336" y2="1082.391"/>
	<line fill="none" stroke="#CCFFFF" stroke-miterlimit="10" x1="1145.197" y1="0.979" x2="1917.127" y2="952.94"/>
	<line fill="none" stroke="#CCFFFF" stroke-miterlimit="10" x1="1272.256" y1="0.861" x2="1915.771" y2="796.5"/>
	<line fill="none" stroke="#CCFFFF" stroke-miterlimit="10" x1="1399.314" y1="0.801" x2="1917.35" y2="635.413"/>
	<line fill="none" stroke="#CCFFFF" stroke-miterlimit="10" x1="1526.374" y1="0.919" x2="1917.021" y2="508.235"/>
	<line fill="none" stroke="#CCFFFF" stroke-miterlimit="10" x1="1653.434" y1="0.801" x2="1917.021" y2="372.481"/>
	<line fill="none" stroke="#CCFFFF" stroke-miterlimit="10" x1="1780.491" y1="1.067" x2="1917.179" y2="190.588"/>
	<line fill="none" stroke="#CCFFFF" stroke-miterlimit="10" x1="-1.557" y1="889.412" x2="109.561" y2="1087.438"/>
</g>
</svg>
