<?xml version="1.0" encoding="utf-8"?>
<!-- Generator: Adobe Illustrator 16.0.0, SVG Export Plug-In . SVG Version: 6.00 Build 0)  -->
<!DOCTYPE svg PUBLIC "-//W3C//DTD SVG 1.1//EN" "http://www.w3.org/Graphics/SVG/1.1/DTD/svg11.dtd">
<svg version="1.1" id="图形" xmlns="http://www.w3.org/2000/svg" xmlns:xlink="http://www.w3.org/1999/xlink" x="0px" y="0px"
	 width="1000.637px" height="1000.678px" viewBox="0 0 1000.637 1000.678" enable-background="new 0 0 1000.637 1000.678"
	 xml:space="preserve">
<path fill="#FFFFFF" d="M956.086,782.836L779.344,328.228c-1.961-5.048-5.048-9.258-8.648-12.957h98.041v-81.9H545.182v-76.435
	h-81.883v76.435H131.518v81.9h98.04c-3.602,3.795-6.687,7.909-8.641,12.957L42.222,787.98c-4.942,12.554-3.294,26.861,4.316,37.967
	c7.612,11.107,20.27,17.795,33.846,17.795h357.918c22.632,0,40.942-18.308,40.942-40.941c0-7.202-1.849-14.099-5.144-19.965
	L297.36,328.228c-1.962-5.048-5.047-9.258-8.649-12.957h174.587v76.42h81.883v-76.42h166.471c-3.6,3.795-6.687,7.909-8.648,12.957
	L524.206,787.98c-4.936,12.554-3.295,26.861,4.325,37.967c7.601,11.107,20.254,17.795,33.837,17.795h357.919
	c22.633,0,40.941-18.308,40.941-40.941C961.229,795.501,959.379,788.702,956.086,782.836z M378.014,761.858H140.263l118.928-305.757
	L378.014,761.858z M622.245,761.858l118.922-305.757l118.937,305.757H622.245z"/>
</svg>
