<?xml version="1.0" encoding="utf-8"?>
<!-- Generator: Adobe Illustrator 16.0.0, SVG Export Plug-In . SVG Version: 6.00 Build 0)  -->
<!DOCTYPE svg PUBLIC "-//W3C//DTD SVG 1.1//EN" "http://www.w3.org/Graphics/SVG/1.1/DTD/svg11.dtd">
<svg version="1.1" id="图形" xmlns="http://www.w3.org/2000/svg" xmlns:xlink="http://www.w3.org/1999/xlink" x="0px" y="0px"
	 width="1000.637px" height="1000.678px" viewBox="0 0 1000.637 1000.678" enable-background="new 0 0 1000.637 1000.678"
	 xml:space="preserve">
<g>
	<path fill="#FFFFFF" d="M360.375,557.483c-28.429,0-51.476,18.111-51.476,40.473v202.332h102.95V597.956
		C411.849,575.595,388.803,557.483,360.375,557.483z"/>
	<path fill="#FFFFFF" d="M861.977,448.18l-213.479-88.951h-7.07V218.083c-0.061-58.423-47.408-105.768-105.832-105.833H182.787
		c-58.423,0.065-105.768,47.41-105.833,105.833v564.486c0.053,58.436,47.403,105.785,105.833,105.857h670.344
		c38.941-0.049,70.516-31.6,70.551-70.553V535.608C923.682,502.198,899.936,454.701,861.977,448.18z M551.705,800.288H199.588
		c-17.67-0.021-31.99-14.695-32.011-32.793V242.79c0.021-18.103,14.341-32.771,32.011-32.794h320.105
		c17.676,0.023,31.988,14.691,32.012,32.794V800.288z M675.049,800.288V468.344l172.15,73.491h0.438
		c2.662,4,5.502,11.484,5.502,15.188l0.039,243.246H675.049V800.288z"/>
</g>
</svg>
