<?xml version="1.0" encoding="utf-8"?>
<!-- Generator: Adobe Illustrator 16.0.0, SVG Export Plug-In . SVG Version: 6.00 Build 0)  -->
<!DOCTYPE svg PUBLIC "-//W3C//DTD SVG 1.1//EN" "http://www.w3.org/Graphics/SVG/1.1/DTD/svg11.dtd">
<svg version="1.1" id="图形" xmlns="http://www.w3.org/2000/svg" xmlns:xlink="http://www.w3.org/1999/xlink" x="0px" y="0px"
	 width="1000.637px" height="1000.678px" viewBox="0 0 1000.637 1000.678" enable-background="new 0 0 1000.637 1000.678"
	 xml:space="preserve">
<path fill="#272636" d="M860.381,769.194"/>
<g>
	<path fill="#FFFFFF" d="M499.743,61.979C276.212,61.979,95,243.191,95,466.726c0,223.527,181.212,404.739,404.747,404.739
		c223.526,0,404.738-181.212,404.738-404.739C904.485,243.191,723.273,61.979,499.743,61.979L499.743,61.979L499.743,61.979z
		 M499.743,795.577c-181.613,0-328.855-147.237-328.855-328.853c0-181.618,147.242-328.854,328.855-328.854v328.854L732.282,699.26
		C672.768,758.771,590.556,795.577,499.743,795.577L499.743,795.577L499.743,795.577z"/>
</g>
</svg>
