<?xml version="1.0" encoding="utf-8"?>
<!-- Generator: Adobe Illustrator 16.0.0, SVG Export Plug-In . SVG Version: 6.00 Build 0)  -->
<!DOCTYPE svg PUBLIC "-//W3C//DTD SVG 1.1//EN" "http://www.w3.org/Graphics/SVG/1.1/DTD/svg11.dtd">
<svg version="1.1" id="图形" xmlns="http://www.w3.org/2000/svg" xmlns:xlink="http://www.w3.org/1999/xlink" x="0px" y="0px"
	 width="1000.637px" height="1000.678px" viewBox="0 0 1000.637 1000.678" enable-background="new 0 0 1000.637 1000.678"
	 xml:space="preserve">
<g>
	<path fill="#FFFFFF" d="M201.227,600.61c0-53.592,27.662-122.74,76.072-205.731c19.018-32.847,41.494-67.429,65.7-103.732
		c31.118-43.23,62.236-86.435,95.083-126.208c13.833-17.285,25.934-32.847,39.768-48.41l3.455-3.457l19.021-22.476l19.01,22.476
		l3.471,3.457c1.723,3.458,5.18,6.914,8.637,10.384c10.371,12.095,20.742,25.934,31.125,38.026
		c32.848,41.494,65.693,82.978,95.082,126.208c24.199,36.304,46.689,70.886,65.695,103.732
		c48.408,82.991,76.064,152.14,76.064,205.731c0,171.159-134.844,309.472-300.814,309.472
		C336.079,910.082,201.227,771.77,201.227,600.61 M487.1,246.024c-27.244,34.996-53.052,71.494-77.431,109.532
		c-20.074,30.416-37.275,59.317-53.05,88.218c-35.847,66.938-55.922,121.701-55.922,158.21c0,124.731,91.77,225.139,205.043,225.139
		c113.271,0,205.035-100.407,205.035-225.139c0-36.509-20.068-91.271-55.922-158.21c-15.773-27.374-32.975-57.802-53.055-88.218
		c-24.361-38.038-50.178-73.021-77.42-109.532c-5.732-7.609-12.904-16.724-18.639-24.345
		C500.005,229.301,492.833,236.899,487.1,246.024"/>
	<path fill="#FFFFFF" d="M502.237,787.839c-90.777,0-163.935-81.69-163.935-181.199c0-100.975,85.353-49.002,163.935,0
		c78.58,50.494,163.938-100.975,163.938,0C666.175,706.148,593.002,787.839,502.237,787.839"/>
</g>
</svg>
