<?xml version="1.0" encoding="utf-8"?>
<!-- Generator: Adobe Illustrator 16.0.0, SVG Export Plug-In . SVG Version: 6.00 Build 0)  -->
<!DOCTYPE svg PUBLIC "-//W3C//DTD SVG 1.1//EN" "http://www.w3.org/Graphics/SVG/1.1/DTD/svg11.dtd">
<svg version="1.1" id="图形" xmlns="http://www.w3.org/2000/svg" xmlns:xlink="http://www.w3.org/1999/xlink" x="0px" y="0px"
	 width="1000.637px" height="1000.678px" viewBox="0 0 1000.637 1000.678" enable-background="new 0 0 1000.637 1000.678"
	 xml:space="preserve">
<g>
	<path fill="#FFFFFF" d="M817.12,279.54L657.917,120.337c-18.547-18.543-32-29.598-80.801-29.598H167.52
		c-14.141,0-25.602,11.461-25.602,25.602v768c0,14.137,11.461,25.598,25.602,25.598h665.597c14.137,0,25.603-11.461,25.603-25.598
		V374.738C858.718,310.739,839.52,301.941,817.12,279.54L817.12,279.54z M756.316,807.541H244.315V193.137h337.28l0.5,156.223
		c0,14.138,17.861,34.495,32,34.495h142.221V807.541L756.316,807.541z"/>
	<path fill="#FFFFFF" d="M346.719,449.138h307.198v80.717H346.719V449.138L346.719,449.138z"/>
	<path fill="#FFFFFF" d="M346.719,602.739h307.198v79.115l-307.198,2V602.739L346.719,602.739z"/>
</g>
</svg>
