<?xml version="1.0" encoding="utf-8"?>
<!-- Generator: Adobe Illustrator 16.0.0, SVG Export Plug-In . SVG Version: 6.00 Build 0)  -->
<!DOCTYPE svg PUBLIC "-//W3C//DTD SVG 1.1//EN" "http://www.w3.org/Graphics/SVG/1.1/DTD/svg11.dtd">
<svg version="1.1" id="图形" xmlns="http://www.w3.org/2000/svg" xmlns:xlink="http://www.w3.org/1999/xlink" x="0px" y="0px"
	 width="1000.637px" height="1000.678px" viewBox="0 0 1000.637 1000.678" enable-background="new 0 0 1000.637 1000.678"
	 xml:space="preserve">
<g>
	<g>
		<path fill="#FFFFFF" d="M798.175,672.813"/>
		<path fill="#FFFFFF" d="M861.841,795.246"/>
		<path fill="#FFFFFF" d="M883.041,142.188H135.595c-30.931,0-55.795,28.685-55.795,64.333v602.966
			c0,35.662,24.865,64.335,55.795,64.335H883.04c30.931,0,55.796-28.671,55.796-64.335V207.292
			C938.836,171.645,913.973,142.188,883.041,142.188L883.041,142.188z M851.079,762.922c0,10.61-7.305,19.813-17.063,19.813H190.861
			c-9.137,0-17.059-8.48-17.059-19.813V251.599c0-10.61,7.305-19.795,17.059-19.795h643.156c9.141,0,17.063,8.481,17.063,19.795
			L851.079,762.922L851.079,762.922z"/>
		<rect x="279.818" y="449.839" fill="#FFFFFF" width="100" height="310"/>
		<rect x="463.818" y="310.839" fill="#FFFFFF" width="100" height="449"/>
		<rect x="647.818" y="395.839" fill="#FFFFFF" width="100" height="364"/>
	</g>
</g>
</svg>
