<?xml version="1.0" encoding="utf-8"?>
<!-- Generator: Adobe Illustrator 16.0.0, SVG Export Plug-In . SVG Version: 6.00 Build 0)  -->
<!DOCTYPE svg PUBLIC "-//W3C//DTD SVG 1.1//EN" "http://www.w3.org/Graphics/SVG/1.1/DTD/svg11.dtd">
<svg version="1.1" id="图形" xmlns="http://www.w3.org/2000/svg" xmlns:xlink="http://www.w3.org/1999/xlink" x="0px" y="0px"
	 width="1000.637px" height="1000.678px" viewBox="0 0 1000.637 1000.678" enable-background="new 0 0 1000.637 1000.678"
	 xml:space="preserve">
<g>
	<path fill="#FFFFFF" d="M789.198,913.018H211.445c-45.585,0-82.536-36.949-82.536-82.54l0,0V170.189
		c0-45.578,36.951-82.529,82.536-82.529h577.753c45.577,0,82.529,36.951,82.529,82.529l0,0v660.289
		C871.728,876.068,834.775,913.018,789.198,913.018z M789.198,170.189H211.445v660.289h577.753V170.189z M706.658,335.271h-412.68
		v-82.542h412.68V335.271z M500.318,500.341h-206.34v-82.53h206.34V500.341z M569.231,598.345l34.256-98.004l33.842,97.967H747.93
		l-89.557,54.558l34.256,94.922l-89.142-61.913l-89.542,59.798l34.243-92.354l-89.551-54.922h110.594V598.345z"/>
</g>
</svg>
