<?xml version="1.0" encoding="utf-8"?>
<!-- Generator: Adobe Illustrator 16.0.0, SVG Export Plug-In . SVG Version: 6.00 Build 0)  -->
<!DOCTYPE svg PUBLIC "-//W3C//DTD SVG 1.1//EN" "http://www.w3.org/Graphics/SVG/1.1/DTD/svg11.dtd">
<svg version="1.1" id="图形" xmlns="http://www.w3.org/2000/svg" xmlns:xlink="http://www.w3.org/1999/xlink" x="0px" y="0px"
	 width="1000.637px" height="1000.678px" viewBox="0 0 1000.637 1000.678" enable-background="new 0 0 1000.637 1000.678"
	 xml:space="preserve">
<path fill="#FFFFFF" d="M710.727,88.052c-131.054,0-235.368,107.391-235.368,237.543c0,99.854,64.177,212.629,119.002,289.748
	c32.766,46.255,68.317,90.447,106.526,132.383c2.328,3.053,5.986,4.85,9.807,4.882c3.688-0.63,7.109-2.323,9.803-4.882
	c22.296-22.331,64.196-72.674,106.523-132.383c54.365-77.588,119.024-189.895,119.024-289.748
	C946.045,195.441,839.518,88.052,710.727,88.052L710.727,88.052z M710.727,467.779c-80.016,0.729-145.474-63.5-146.205-143.514
	c-0.763-79.978,63.499-145.435,143.481-146.203c80.01-0.73,145.467,63.503,146.198,143.513c0,0.467,0,0.898,0,1.329
	C854.538,402.52,790.34,467.379,710.727,467.779z M457.314,682.629L89.117,642.521l42.521-177.402
	c2.939-9.969,14.741-16.942,25.126-17.378h283.154c12.376,34.326,24.26,67.686,41.555,99.853L457.314,682.629z M430.781,912.601
	H79.112c-7.791,0.368-15.201-3.321-19.604-9.769c-4.917-4.92-4.917-12.493-4.917-20.07l22.929-169.825L448.5,753.039
	L430.781,912.601z M899.922,591.997l21.261,137.882l-126.26-12.49C814.531,695.091,895.041,599.573,899.922,591.997z
	 M932.779,802.551c0,0,13.266,82.44,13.266,85.129c0.068,13.721-11.066,24.921-24.82,24.921c-0.036,0-0.1,0-0.137,0H505.229
	l18.767-152.415L932.779,802.551z"/>
</svg>
