<?xml version="1.0" encoding="utf-8"?>
<!-- Generator: Adobe Illustrator 16.0.0, SVG Export Plug-In . SVG Version: 6.00 Build 0)  -->
<!DOCTYPE svg PUBLIC "-//W3C//DTD SVG 1.1//EN" "http://www.w3.org/Graphics/SVG/1.1/DTD/svg11.dtd">
<svg version="1.1" id="图形" xmlns="http://www.w3.org/2000/svg" xmlns:xlink="http://www.w3.org/1999/xlink" x="0px" y="0px"
	 width="1000.637px" height="1000.678px" viewBox="0 0 1000.637 1000.678" enable-background="new 0 0 1000.637 1000.678"
	 xml:space="preserve">
<g>
	<path fill="#FFFFFF" d="M285.421,564.456c71.083,0,128.952-57.571,128.952-128.294c0-70.736-57.868-128.308-128.952-128.308
		c-71.082,0-128.95,57.571-128.95,128.308C156.472,506.885,214.339,564.456,285.421,564.456z M890.468,657.905
		c-22.563-27.626-53.36-49.519-91.479-65.104c-46.067-18.771-103.154-28.318-169.698-28.318c-66.546,0-123.659,9.483-169.701,28.318
		c-38.118,15.545-68.905,37.451-91.474,65.104c-39.227,48.113-39.713,96.951-39.713,98.984c0,35.364,28.937,64.155,64.478,64.155
		h472.824c35.534,0,64.459-28.767,64.459-64.155C930.162,754.856,929.741,706.021,890.468,657.905z M629.289,521.694
		c94.824,0,171.928-76.724,171.928-171.045c0-94.32-77.104-171.07-171.928-171.07c-94.826,0-171.938,76.725-171.938,171.045
		C457.352,444.942,534.463,521.694,629.289,521.694z"/>
	<path fill="#FFFFFF" d="M357.417,624.981c9.674-19.873-8.487-21.854-20.332-22.512c-7.333-0.365-163.416-8.644-238.074,77.459
		c-30.643,35.324-28.505,75.385-28.505,76.961c0,35.364,28.93,64.155,64.472,64.155h146.063l0.085,0.054
		c20.949,0,25.722-10.377,21.485-21.383C268.763,711.767,356.289,627.315,357.417,624.981z"/>
</g>
</svg>
