<?xml version="1.0" encoding="utf-8"?>
<!-- Generator: Adobe Illustrator 16.0.0, SVG Export Plug-In . SVG Version: 6.00 Build 0)  -->
<!DOCTYPE svg PUBLIC "-//W3C//DTD SVG 1.1//EN" "http://www.w3.org/Graphics/SVG/1.1/DTD/svg11.dtd">
<svg version="1.1" id="图形" xmlns="http://www.w3.org/2000/svg" xmlns:xlink="http://www.w3.org/1999/xlink" x="0px" y="0px"
	 width="1000.637px" height="1000.678px" viewBox="0 0 1000.637 1000.678" enable-background="new 0 0 1000.637 1000.678"
	 xml:space="preserve">
<path fill="#FFFFFF" d="M297.123,681.429c0,13.905-11.409,25.314-25.309,25.314h-73.078c-13.904,0-25.309-11.409-25.309-25.314
	V481.447c0-13.905,11.404-25.312,25.309-25.312h73.078c13.899,0,25.309,11.407,25.309,25.312V681.429z M473.581,681.429
	c0,13.905-11.409,25.314-25.309,25.314h-72.724c-13.9,0-25.307-11.409-25.307-25.314V361.312c0-13.902,11.406-25.309,25.307-25.309
	h73.08c13.9,0,25.309,11.407,25.309,25.309v320.117H473.581z M650.395,681.429c0,13.905-11.407,25.314-25.308,25.314h-73.079
	c-13.906,0-25.309-11.409-25.309-25.314V196.262c0-13.905,11.402-25.311,25.309-25.311h73.079c13.9,0,25.308,11.405,25.308,25.311
	V681.429z M826.853,681.429c0,13.905-11.409,25.314-25.309,25.314h-73.078c-13.905,0-25.31-11.409-25.31-25.314v-263.08
	c0-13.905,11.404-25.309,25.31-25.309h73.078c13.899,0,25.309,11.403,25.309,25.309V681.429z M853.946,804.418
	c0,13.899-11.409,25.309-25.309,25.309H171.999c-13.903,0-25.309-11.409-25.309-25.309v-53.829c0-13.906,11.405-25.31,25.309-25.31
	h656.639c13.899,0,25.309,11.403,25.309,25.31V804.418z"/>
</svg>
