<?xml version="1.0" encoding="utf-8"?>
<!-- Generator: Adobe Illustrator 16.0.0, SVG Export Plug-In . SVG Version: 6.00 Build 0)  -->
<!DOCTYPE svg PUBLIC "-//W3C//DTD SVG 1.1//EN" "http://www.w3.org/Graphics/SVG/1.1/DTD/svg11.dtd">
<svg version="1.1" id="图形" xmlns="http://www.w3.org/2000/svg" xmlns:xlink="http://www.w3.org/1999/xlink" x="0px" y="0px"
	 width="1000.637px" height="1000.678px" viewBox="0 0 1000.637 1000.678" enable-background="new 0 0 1000.637 1000.678"
	 xml:space="preserve">
<path fill="#FFFFFF" d="M859.025,802.698c-0.078,12.378-10.145,22.366-22.521,22.35H165.901c-5.986,0-11.729-2.38-15.958-6.615
	c-4.231-4.23-6.594-9.973-6.568-15.955l1.329-275.813l-1.329-1.036l1.341-1.425l1.013-210.229h0.301
	c1.286-11.082,10.105-19.662,20.79-19.662c10.686,0,19.503,8.58,20.791,19.662l0.143,171.42
	c24.333-15.57,53.982-25.155,88.706-28.513c25.585-1,45.287,3.032,62.26,11.813c12.649,6.547,20.489,13.068,34.744,27.063
	l0.931,0.911c20.6,20.214,30.629,25.612,56.172,25.612c25.468,0,33.281-4.063,49.679-21.004l1.307-1.347
	c12.184-12.579,19.987-19.141,32.633-25.448c16.245-8.114,35.826-12.143,60.581-12.143c33.119,0,52.486,9.092,77.146,30.121
	l6.877,5.885c20.71,17.562,35.838,23.936,68.988,23.936c22.002,0,45.561-6.143,70.812-18.787l18.415-9.222l0.022-183.11
	c-0.02-4.655-3.798-8.417-8.45-8.421H450.402v-0.171c-11.2-1.448-19.577-10.994-19.557-22.286
	c-0.023-11.298,8.354-20.85,19.557-22.297v-0.177h388.735c5.996,0,11.742,2.381,15.969,6.622c4.226,4.234,6.59,9.979,6.561,15.96
	L859.025,802.698z M386.023,399.945c-18.457,0-33.425-15.037-33.425-33.596c0-18.544,27.66-72.349,33.425-72.349
	c5.767,0,33.417,53.805,33.417,72.349C419.449,384.908,404.479,399.945,386.023,399.945z M291.495,352.08
	c-29.635,0-53.653-24.141-53.653-53.92c0-29.793,44.397-116.16,53.653-116.16c9.255,0,53.653,86.367,53.653,116.152
	C345.156,327.93,321.13,352.08,291.495,352.08z"/>
</svg>
