<?xml version="1.0" encoding="utf-8"?>
<!-- Generator: Adobe Illustrator 16.0.0, SVG Export Plug-In . SVG Version: 6.00 Build 0)  -->
<!DOCTYPE svg PUBLIC "-//W3C//DTD SVG 1.1//EN" "http://www.w3.org/Graphics/SVG/1.1/DTD/svg11.dtd">
<svg version="1.1" id="图形" xmlns="http://www.w3.org/2000/svg" xmlns:xlink="http://www.w3.org/1999/xlink" x="0px" y="0px"
	 width="1000.637px" height="1000.678px" viewBox="0 0 1000.637 1000.678" enable-background="new 0 0 1000.637 1000.678"
	 xml:space="preserve">
<g>
	<path fill="#FFFFFF" d="M494.528,180.84C541.5,393.855,682.373,500.367,682.373,606.829c0,106.512-46.973,213.008-187.845,213.008
		c-19.119,0-36.51-1.99-52.278-5.658c100.461-23.266,135.536-115.348,135.536-207.35c0-78.506-76.516-156.969-135.536-278.083
		C463.316,285.534,482.156,236.885,494.528,180.84z"/>
	<path fill="#FFFFFF" d="M335.461,180.84c46.974,213.015,187.853,319.479,187.853,425.989c0,106.512-46.975,212.963-187.852,212.963
		c-140.926,0-187.857-106.5-187.857-213.01C147.604,500.32,288.535,393.809,335.461,180.84z"/>
	<path fill="#FFFFFF" d="M665.176,180.84c46.973,213.015,187.855,319.526,187.855,425.989c0,106.512-46.973,213.008-187.855,213.008
		c-19.121,0-36.504-1.99-52.271-5.658c100.453-23.266,135.516-115.348,135.516-207.35c0-78.506-76.504-156.969-135.516-278.083
		C633.955,285.534,652.799,236.885,665.176,180.84z"/>
</g>
</svg>
