<?xml version="1.0" encoding="utf-8"?>
<!-- Generator: Adobe Illustrator 16.0.0, SVG Export Plug-In . SVG Version: 6.00 Build 0)  -->
<!DOCTYPE svg PUBLIC "-//W3C//DTD SVG 1.1//EN" "http://www.w3.org/Graphics/SVG/1.1/DTD/svg11.dtd">
<svg version="1.1" id="图形" xmlns="http://www.w3.org/2000/svg" xmlns:xlink="http://www.w3.org/1999/xlink" x="0px" y="0px"
	 width="1000.637px" height="1000.678px" viewBox="0 0 1000.637 1000.678" enable-background="new 0 0 1000.637 1000.678"
	 xml:space="preserve">
<path fill="#FFFFFF" d="M486.512,561.173c28.113,7.068,58.095,10.671,92.613,10.671c12.506,0,44.223-9.874,92.479-29.348V471.26
	c0.219-18.382,15.299-33.104,33.678-32.884c0.004,0,0.006,0,0.006,0c18.357-0.185,33.396,14.526,33.619,32.884v230.112
	c0,36.353-30.117,65.768-67.303,65.768H234.118c-37.151,0-67.299-29.446-67.299-65.768V471.26
	c0.219-18.382,15.298-33.104,33.678-32.884c0.003,0,0.003,0,0.006,0c18.355-0.185,33.396,14.526,33.615,32.884v46.49
	c24.68-17.41,49.46-26.347,74.306-26.347c3.289,0.002,6.575,0.213,9.838,0.633v-61.232c-0.034-108.952,90.344-197.264,201.9-197.264
	h279.906c18.379-0.223,33.459,14.498,33.684,32.879c0,0.001,0,0.004,0,0.004c-0.219,18.382-15.299,33.104-33.678,32.884
	c-0.004,0-0.006,0-0.006,0H520.162c-74.337,0-134.601,58.863-134.601,131.497v88.514c10.672,5.636,21.777,11.506,27.014,14.072
	l6.67,3.233V430.804c0-54.492,45.156-98.647,100.917-98.647h280.006c18.369-0.203,33.43,14.514,33.65,32.884
	c-0.221,18.379-15.297,33.103-33.68,32.883h-0.002H520.162c-18.371-0.205-33.43,14.513-33.65,32.881v130.399V561.173z
	 M486.512,595.021v24.179c-0.221,18.371-15.28,33.086-33.651,32.884c-18.368,0.202-33.431-14.513-33.649-32.884v-46.354
	c-11.413-4.938-22.63-10.322-33.617-16.143v62.531c-0.22,18.381-15.299,33.102-33.678,32.883c-0.002,0-0.003,0-0.005,0
	c-18.356,0.186-33.397-14.529-33.617-32.883v-93.881c-2.539-0.529-5.114-0.865-7.703-1.001l-2.135-0.065
	c-23.012,0-47.758,11.738-74.305,36.117v140.969h437.487V577.978c-45.422,17.876-75.574,26.714-92.48,26.714
	c-34.084,0-64.301-3.268-92.613-9.671H486.512z"/>
</svg>
