<?xml version="1.0" encoding="utf-8"?>
<!-- Generator: Adobe Illustrator 16.0.0, SVG Export Plug-In . SVG Version: 6.00 Build 0)  -->
<!DOCTYPE svg PUBLIC "-//W3C//DTD SVG 1.1//EN" "http://www.w3.org/Graphics/SVG/1.1/DTD/svg11.dtd">
<svg version="1.1" id="图形" xmlns="http://www.w3.org/2000/svg" xmlns:xlink="http://www.w3.org/1999/xlink" x="0px" y="0px"
	 width="1000.637px" height="1000.678px" viewBox="0 0 1000.637 1000.678" enable-background="new 0 0 1000.637 1000.678"
	 xml:space="preserve">
<g>
	<path fill="#FFFFFF" d="M668.139,438.335c0-29.338-7.958-58.08-22.996-83.104l-0.033,0.024
		c-5.256-10.021-42-78.534-121.235-189.843c-0.01-0.012-0.021-0.029-0.032-0.04c-0.308-0.434-0.65-0.85-0.992-1.26
		c-0.125-0.149-0.237-0.302-0.365-0.446c-0.203-0.227-0.434-0.444-0.638-0.667c-0.297-0.301-0.581-0.609-0.891-0.895
		c-0.067-0.057-0.136-0.114-0.204-0.171c-0.479-0.428-0.959-0.838-1.461-1.214c-0.011-0.006-0.021-0.012-0.021-0.017
		c-0.069-0.046-0.138-0.086-0.205-0.131c-0.502-0.359-1.004-0.707-1.528-1.026c-0.204-0.12-0.41-0.223-0.614-0.336
		c-0.389-0.217-0.775-0.439-1.188-0.632c-0.316-0.154-0.639-0.279-0.957-0.411c-0.308-0.131-0.604-0.263-0.911-0.376
		c-0.388-0.137-0.776-0.251-1.164-0.37c-0.25-0.08-0.524-0.165-0.796-0.24c-0.389-0.102-0.788-0.176-1.188-0.256
		c-0.273-0.057-0.548-0.12-0.822-0.16c-0.362-0.057-0.74-0.097-1.115-0.131c-0.319-0.034-0.639-0.074-0.958-0.097
		c-0.319-0.017-0.64-0.017-0.945-0.017c-0.377-0.011-0.764-0.017-1.151,0c-0.252,0.011-0.503,0.034-0.754,0.057
		c-0.442,0.028-0.877,0.063-1.311,0.125c-0.216,0.028-0.422,0.074-0.639,0.108c-0.463,0.08-0.924,0.16-1.386,0.268
		c-0.204,0.052-0.405,0.114-0.61,0.171c-0.449,0.12-0.899,0.239-1.344,0.393c-0.246,0.085-0.492,0.188-0.736,0.286
		c-0.381,0.147-0.77,0.29-1.15,0.461c-0.343,0.16-0.679,0.341-1.021,0.519c-0.263,0.137-0.533,0.262-0.797,0.416
		c-0.463,0.263-0.912,0.559-1.356,0.867c-0.12,0.08-0.25,0.148-0.375,0.239c-0.012,0.012-0.022,0.023-0.041,0.029
		c-0.438,0.319-0.861,0.667-1.283,1.015c-0.136,0.113-0.284,0.224-0.416,0.336c-0.239,0.217-0.466,0.45-0.694,0.679
		c-0.297,0.279-0.593,0.552-0.866,0.849c-0.067,0.08-0.13,0.159-0.2,0.24c-0.416,0.462-0.814,0.94-1.184,1.43
		c-0.006,0.012-0.019,0.018-0.023,0.029C407.668,274.817,373.573,343.437,367.84,355.482
		c-14.941,24.974-22.841,53.618-22.841,82.854c0,89.091,72.479,161.563,161.567,161.563
		C595.653,599.899,668.139,527.427,668.139,438.335z"/>
	<path fill="#FFFFFF" d="M836.115,426.262c-8.928-7.619-22.335-6.571-29.961,2.343L577.377,696.304
		c-8.902,2.531-15.447,10.704-15.447,20.43v106.186c0,11.743,9.508,21.251,21.251,21.251c11.72,0,21.228-9.508,21.228-21.251V730.06
		l234.055-273.853C846.079,447.291,845.029,433.884,836.115,426.262z"/>
	<path fill="#FFFFFF" d="M425.038,699.063l-230.504-272.19c-7.582-8.949-20.984-10.062-29.933-2.479
		c-8.956,7.582-10.068,20.982-2.486,29.933l229.898,271.459v97.134c0,11.743,9.508,21.251,21.238,21.251
		c11.732,0,21.241-9.508,21.241-21.251V716.733C434.494,709.356,430.736,702.869,425.038,699.063z"/>
</g>
</svg>
