<?xml version="1.0" encoding="utf-8"?>
<!-- Generator: Adobe Illustrator 16.0.0, SVG Export Plug-In . SVG Version: 6.00 Build 0)  -->
<!DOCTYPE svg PUBLIC "-//W3C//DTD SVG 1.1//EN" "http://www.w3.org/Graphics/SVG/1.1/DTD/svg11.dtd">
<svg version="1.1" id="图形" xmlns="http://www.w3.org/2000/svg" xmlns:xlink="http://www.w3.org/1999/xlink" x="0px" y="0px"
	 width="1000.637px" height="1000.678px" viewBox="0 0 1000.637 1000.678" enable-background="new 0 0 1000.637 1000.678"
	 xml:space="preserve">
<g>
	<path fill="#FFFFFF" d="M622.305,447.769c12.834-3.628,26.516-2.815,38.832,2.299c6.045-22.732,24.879-59.402,34.233-76.262
		c0.256-0.414,0.499-0.827,0.741-1.237c0.365-0.637,0.687-1.29,1.043-1.923c0.989-1.825,3.114-5.965,2.941-6.998
		c8.374-25.81-5.76-53.52-31.569-61.896c-25.806-8.371-53.516,5.761-61.89,31.57c-0.244,0.745-0.464,1.493-0.672,2.248
		c-17.09,47.797-2.299,91.709,8.814,114.808C617.227,449.343,619.742,448.473,622.305,447.769z M809.097,571.814
		c-2.144-3.685-4.761-7.072-7.78-10.079c-32.854-38.704-78.293-47.864-103.853-49.771c-1.509,13.087-7.335,25.301-16.56,34.707
		c-1.97,2.015-4.077,3.888-6.31,5.606c16.663,16.605,39.006,51.243,48.933,67.803c0.23,0.426,0.462,0.84,0.714,1.265
		c0.368,0.632,0.768,1.241,1.148,1.862c1.079,1.767,3.608,5.686,4.596,6.045c17.994,20.306,49.046,22.186,69.353,4.188
		c17.575-15.57,21.674-41.403,9.782-61.65L809.097,571.814z M579.338,512.836c-22.711,6.139-63.896,8.16-83.179,8.491h-1.448
		c-0.736,0-1.46,0-2.185,0.06c-2.067,0-6.721,0.287-7.54,0.942c-26.55,5.588-43.544,31.645-37.956,58.193
		c5.589,26.552,31.643,43.544,58.196,37.955c0.851-0.177,1.696-0.378,2.539-0.604c49.945-9.104,80.596-43.875,95.039-65.057
		c-2.137-1.59-4.165-3.323-6.07-5.184C587.185,538.325,581.054,526.065,579.338,512.836z M593.539,505.068
		c0,24.752,20.067,44.817,44.821,44.817c24.755,0,44.821-20.065,44.821-44.817c0-24.751-20.066-44.819-44.821-44.819l0,0
		c-24.754,0-44.821,20.068-44.821,44.817C593.539,505.068,593.539,505.068,593.539,505.068z"/>
	<path fill="#FFFFFF" d="M113.313,230.432v539.814h774.012V230.432H113.313z M369.999,718.842h-215.28v-25.35h215.28V718.842z
		 M369.999,651.762h-215.28v-25.348h215.28V651.762z M369.999,584.684h-215.28v-25.35h215.28V584.684z M369.999,517.605h-215.28
		v-25.351h215.28V517.605z M369.999,450.525h-215.28V425.21h215.28V450.525z M369.999,383.447h-215.28v-25.362h215.28V383.447z
		 M369.999,316.366h-215.28v-25.359h215.28V316.366z M639.683,737.575c-129.861,0-235.093-105.256-235.093-235.095
		c0-129.835,105.255-235.09,235.093-235.09s235.092,105.255,235.092,235.09C874.774,632.319,769.531,737.575,639.683,737.575z"/>
</g>
</svg>
