<?xml version="1.0" encoding="utf-8"?>
<!-- Generator: Adobe Illustrator 16.0.0, SVG Export Plug-In . SVG Version: 6.00 Build 0)  -->
<!DOCTYPE svg PUBLIC "-//W3C//DTD SVG 1.1//EN" "http://www.w3.org/Graphics/SVG/1.1/DTD/svg11.dtd">
<svg version="1.1" id="图形" xmlns="http://www.w3.org/2000/svg" xmlns:xlink="http://www.w3.org/1999/xlink" x="0px" y="0px"
	 width="1000.637px" height="1000.678px" viewBox="0 0 1000.637 1000.678" enable-background="new 0 0 1000.637 1000.678"
	 xml:space="preserve">
<path fill="#FFFFFF" d="M686.66,768.943H329.236c-13.238,0-26.475,26.477-26.475,26.477v26.476h407.065V795.42
	C713.137,782.182,699.898,768.943,686.66,768.943z M762.777,160H253.119C210.095,160,177,196.404,177,239.427v370.662
	c0,43.023,33.095,79.427,76.119,79.427H431.83v26.476c0,13.238,9.929,26.477,26.476,26.477H560.9
	c13.237,0,26.475-13.238,26.475-26.477v-26.476h178.713c43.022,0,76.117-36.403,76.117-79.427V239.427
	C838.896,196.404,805.803,160,762.777,160z M253.119,583.613c-13.238,0-26.476-13.238-26.476-26.476v-317.71
	c0-13.237,9.929-26.475,26.476-26.475h509.659c13.238,0,26.476,13.238,26.476,26.475v317.71c0,13.237-9.927,26.476-26.476,26.476
	H253.119z M693.279,279.142l-82.738,86.046l-59.569-59.571c-6.619-6.619-13.238-9.929-19.856-6.619
	c-6.619,0-13.238,6.619-19.857,13.238L435.14,451.234l-29.786-82.737c-3.309-6.619-9.928-13.238-19.857-16.547
	c-9.929-3.31-16.547,0-23.166,6.619l-76.117,79.428c-9.929,9.928-9.929,26.476,0,36.403c9.928,9.93,26.475,9.93,36.403,0
	l49.642-49.641l36.405,95.974c3.31,9.929,13.238,16.548,23.167,16.548h3.31c9.929,0,16.547-6.619,23.167-13.238l86.046-155.545
	l52.951,56.262c9.929,9.928,26.476,9.928,36.404,0l102.595-105.904c9.929-9.929,9.929-26.476,0-36.403
	C719.755,269.213,703.207,269.213,693.279,279.142z"/>
</svg>
