<?xml version="1.0" encoding="utf-8"?>
<!-- Generator: Adobe Illustrator 16.0.0, SVG Export Plug-In . SVG Version: 6.00 Build 0)  -->
<!DOCTYPE svg PUBLIC "-//W3C//DTD SVG 1.1//EN" "http://www.w3.org/Graphics/SVG/1.1/DTD/svg11.dtd">
<svg version="1.1" id="图形" xmlns="http://www.w3.org/2000/svg" xmlns:xlink="http://www.w3.org/1999/xlink" x="0px" y="0px"
	 width="1000.637px" height="1000.678px" viewBox="0 0 1000.637 1000.678" enable-background="new 0 0 1000.637 1000.678"
	 xml:space="preserve">
<path fill="#19CDFD" d="M650.911,773.518v-42.902h35.249V512.068H533.104v36.977H461.32v-36.977H258.127
	c-23.378,0-42.007-7.76-57.168-23.735l-0.548-0.544c-15.612-15.612-23.195-34.056-23.195-56.603V199.135h-35.252v-42.815h207.759
	v42.815h-35.247V373.22h147.488v-36.973h71.78v37.521H742.6c23.382,0,42.102,7.761,57.169,23.736l0.276,0.27l0.271,0.275
	c15.616,15.607,23.104,34.051,23.104,56.601v276.057h35.253v42.812H650.911z"/>
<path fill="#FF6A1C" d="M496.296,619.153l64.844,86.45l5.113,6.846l0.554,0.545c9.68,14.242,14.238,30.126,14.789,46.652
	c0,46.641-38.078,84.712-84.75,84.712c-46.665,0-84.745-38.071-84.745-84.712c0-19.903,6.85-39.258,19.361-54.043L496.296,619.153z"
	/>
</svg>
