<?xml version="1.0" standalone="no"?><!DOCTYPE svg PUBLIC "-//W3C//DTD SVG 1.1//EN" "http://www.w3.org/Graphics/SVG/1.1/DTD/svg11.dtd"><svg t="1566821137301" class="icon" viewBox="0 0 1024 1024" version="1.1" xmlns="http://www.w3.org/2000/svg" p-id="7945" xmlns:xlink="http://www.w3.org/1999/xlink" width="200" height="200"><defs><style type="text/css"></style></defs><path d="M417.520185 399.358547a154.478304 154.478304 0 0 0 4.992711 22.147416c13.087063 43.022862 44.286646 77.889975 84.48416 95.27697v-0.002046l0.002047 0.002046V235.427964l-0.002047 0.002046v-0.002046c-53.596685 23.194258-91.196025 77.440743-91.196025 140.682089v0.002047c0 7.904017 0.586354 15.667841 1.719154 23.246447zM750.043534 459.458343c-10.609639-9.852392-22.614044-18.167778-35.67143-24.597211-19.588127-9.645684-41.549302-15.050788-64.745607-15.050787-7.733125 0-15.33015 0.599657-22.747073 1.75804-22.248723 3.473101-42.881646 11.968589-60.757782 24.308638a150.615323 150.615323 0 0 0-16.916275 13.582344c-14.388708 13.363356-25.934672 29.724998-34.360576 47.886636-0.977257-0.447185-1.857301-1.063215-2.844791-1.489933v281.354969a147.657968 147.657968 0 0 0 19.309788-10.107195c43.106774-26.780947 71.888284-75.237565 71.888284-130.561592v-0.002046c0-0.542352-0.11154-1.055029-0.117681-1.597381-0.151449-15.230889-2.376117-29.955242-6.588045-43.803645-11.537777-37.943171-37.338397-69.251224-70.808696-88.116897h261.566275c-8.507768-20.540825-21.289885-38.782282-37.206391-53.56394zM235.425917 518.149047a153.298432 153.298432 0 0 0 22.37152 37.680181c27.39493 33.921577 68.852134 55.544037 115.254977 55.544037 42.391483 0 80.383772-18.326391 107.569948-47.322795 12.483312-13.31219 22.906709-28.661783 30.043247-45.9004H235.425917z" fill="#ffffff" p-id="7946"></path><path d="M512 62.568011c-247.808946 0-449.431989 201.606671-449.431989 449.431989S264.191054 961.431989 512 961.431989s449.431989-201.606671 449.431989-449.431989S759.808946 62.568011 512 62.568011z m0 829.720202c-209.691813 0-380.289236-170.5964-380.289236-380.289236s170.5964-380.289236 380.289236-380.289236 380.289236 170.5964 380.289236 380.289236-170.597423 380.289236-380.289236 380.289236z" fill="#ffffff" p-id="7947"></path></svg>