<?xml version="1.0" standalone="no"?><!DOCTYPE svg PUBLIC "-//W3C//DTD SVG 1.1//EN" "http://www.w3.org/Graphics/SVG/1.1/DTD/svg11.dtd"><svg t="1566614006201" class="icon" viewBox="0 0 1024 1024" version="1.1" xmlns="http://www.w3.org/2000/svg" p-id="1308" xmlns:xlink="http://www.w3.org/1999/xlink" width="200" height="200"><defs><style type="text/css"></style></defs><path d="M511.596 562.23l46.7-45.11a341.396 341.396 0 0 0 110.241-253.898A301.757 301.757 0 0 0 559.454 39.559L511.596 0.269l-46.7 44.733A341.396 341.396 0 0 0 356.972 298.9 301.757 301.757 0 0 0 464.115 521l47.48 41.23zM63.056 358.562l-58.07 3.557-3.53 56.481a277.019 277.019 0 0 0 78.47 217.008 274.675 274.675 0 0 0 196.204 78.497c6.683 0 78.497-4.716 78.497-4.716l3.504-56.104a277.019 277.019 0 0 0-78.471-217.007A274.675 274.675 0 0 0 63.057 357.78v0.809zM1021.71 418.6l-3.503-56.104-58.098-3.934A271.926 271.926 0 0 0 665.41 654.848l3.126 56.104 78.498 4.716c73.243 1.051 143.899-27.217 196.177-78.47a279.39 279.39 0 0 0 78.497-217.412V418.6zM511.596 628.143c-24.927 0-45.137 20.21-45.137 45.137v293.133a45.137 45.137 0 0 0 90.274 0v-291.57a45.137 45.137 0 0 0-45.137-46.673z" p-id="1309"></path></svg>