<?xml version="1.0" standalone="no"?><!DOCTYPE svg PUBLIC "-//W3C//DTD SVG 1.1//EN" "http://www.w3.org/Graphics/SVG/1.1/DTD/svg11.dtd"><svg t="1542164406918" class="icon" style="" viewBox="0 0 1024 1024" version="1.1" xmlns="http://www.w3.org/2000/svg" p-id="9109" xmlns:xlink="http://www.w3.org/1999/xlink" width="200" height="200"><defs><style type="text/css"></style></defs><path d="M512 512m-512 0a512 512 0 1 0 1024 0 512 512 0 1 0-1024 0Z" fill="#bfbfbf" p-id="9110"></path><path d="M590.933333 328.533333H273.066667s-53.333333 0-53.333334 51.2v262.4c0 51.2 53.333333 51.2 53.333334 51.2h317.866666s53.333333 0 53.333334-51.2V381.866667c0-53.333333-53.333333-53.333333-53.333334-53.333334z m217.6 27.733334c-4.266667-2.133333-8.533333-2.133333-12.8 2.133333l-104.533333 81.066667c-2.133333 2.133333-4.266667 6.4-4.266667 8.533333v130.133333c0 2.133333 2.133333 8.533333 4.266667 8.533334l104.533333 81.066666c2.133333 2.133333 4.266667 2.133333 8.533334 2.133334 2.133333 0 2.133333 0 6.4-2.133334 4.266667-2.133333 6.4-6.4 6.4-10.666666V366.933333c0-4.266667-2.133333-8.533333-8.533334-10.666666z" fill="#e6e6e6" p-id="9111" class="selected"></path></svg>