<?xml version="1.0" encoding="utf-8"?>
<!-- Generator: Adobe Illustrator 16.0.0, SVG Export Plug-In . SVG Version: 6.00 Build 0)  -->
<!DOCTYPE svg PUBLIC "-//W3C//DTD SVG 1.1//EN" "http://www.w3.org/Graphics/SVG/1.1/DTD/svg11.dtd">
<svg version="1.1" id="图层_1" xmlns="http://www.w3.org/2000/svg" xmlns:xlink="http://www.w3.org/1999/xlink" x="0px" y="0px"
	 width="1600px" height="900px" viewBox="0 0 1600 900" enable-background="new 0 0 1600 900" xml:space="preserve">
<rect fill="#231815" width="1600" height="900"/>
<rect x="545.059" y="151.07" fill="none" width="51.034" height="29.932"/>
<text transform="matrix(1 0 0 1 545.0596 169.0762)" fill="#C9CACA" font-family="'MicrosoftYaHei'" font-size="21">1组</text>
<rect x="545.059" y="580.043" fill="none" width="51.034" height="42.886"/>
<text transform="matrix(1 0 0 1 545.0596 598.0488)" fill="#C9CACA" font-family="'MicrosoftYaHei'" font-size="21">2组</text>
<rect x="870.796" y="56.848" fill="none" width="38.195" height="29.612"/>
<text transform="matrix(1 0 0 1 870.7959 74.8535)" fill="#C9CACA" font-family="'MicrosoftYaHei'" font-size="21">1#</text>
<rect x="870.796" y="179.223" fill="none" width="38.195" height="29.612"/>
<text transform="matrix(1 0 0 1 870.7959 197.2285)" fill="#C9CACA" font-family="'MicrosoftYaHei'" font-size="21">2#</text>
<rect x="870.796" y="287.711" fill="none" width="38.195" height="29.613"/>
<text transform="matrix(1 0 0 1 870.7959 305.7178)" fill="#C9CACA" font-family="'MicrosoftYaHei'" font-size="21">3#</text>
<rect x="870.796" y="410.087" fill="none" width="38.195" height="29.613"/>
<text transform="matrix(1 0 0 1 870.7959 428.0928)" fill="#C9CACA" font-family="'MicrosoftYaHei'" font-size="21">4#</text>
<rect x="870.796" y="538.104" fill="none" width="38.195" height="29.612"/>
<text transform="matrix(1 0 0 1 870.7959 556.1094)" fill="#C9CACA" font-family="'MicrosoftYaHei'" font-size="21">1#</text>
<rect x="870.796" y="646.592" fill="none" width="38.195" height="29.612"/>
<text transform="matrix(1 0 0 1 870.7959 664.5977)" fill="#C9CACA" font-family="'MicrosoftYaHei'" font-size="21">2#</text>
<rect x="870.796" y="768.967" fill="none" width="38.195" height="29.613"/>
<text transform="matrix(1 0 0 1 870.7959 786.9727)" fill="#C9CACA" font-family="'MicrosoftYaHei'" font-size="21">3#</text>
<g>
	<path fill="#2368FB" d="M117.226,464.966h-2.049v-2.05h2.049V464.966z M125.428,490.578c-1.697,0-3.073-1.379-3.073-3.073
		s1.376-3.07,3.073-3.07c1.695,0,3.071,1.376,3.071,3.07v3.825C127.741,490.904,126.726,490.578,125.428,490.578z M125.421,492.621
		c2.32,0,3.164,1.455,3.199,1.519l1.923-0.489v-6.146c0-2.822-2.3-5.121-5.122-5.121c-2.824,0-5.123,2.299-5.123,5.121
		C120.298,490.329,122.597,492.629,125.421,492.621z M130.548,496.727h-2.05c0,3.388,2.753,6.146,6.145,6.146v-2.049
		C132.38,500.823,130.543,498.984,130.548,496.727z M120.298,493.65h-2.051c0,5.088,4.144,9.222,9.224,9.222v-2.049
		C123.52,500.823,120.298,497.608,120.298,493.65z M146.937,498.771h-2.05v-2.05h2.05V498.771z M146.937,502.872h-2.05v-2.049h2.05
		V502.872z M90.6,476.233v-11.268h22.541v-4.1c0-0.561,0.453-1.021,1.021-1.021h10.244c0.561,0,1.023,0.454,1.023,1.021v4.1h13.315
		c6.208,0,11.267,5.052,11.267,11.268v15.365h-10.245v-10.244c0-2.823-2.299-5.121-5.121-5.121h-44.05H90.6z M117.226,451.218
		c0.631,0.275,1.32,0.433,2.051,0.433c0.729,0,1.419-0.157,2.049-0.433v6.583h-4.1V451.218L117.226,451.218z M122.348,446.527
		c0,1.697-1.376,3.073-3.071,3.073c-1.696,0-3.072-1.376-3.072-3.073c0-1.695,1.375-3.071,3.072-3.071
		C120.972,443.456,122.348,444.832,122.348,446.527z M124.405,446.542c0-0.404-0.063-0.788-0.149-1.163
		c2.867-0.375,5.216-1.512,7.159-2.469c1.632-0.802,3.043-1.496,4.249-1.496c2.823,0,5.123,2.299,5.123,5.122
		c0,2.823-2.299,5.123-5.123,5.123c-1.206,0-2.617-0.695-4.249-1.498c-1.943-0.957-4.292-2.092-7.159-2.468
		C124.342,447.315,124.398,446.925,124.405,446.542z M114.154,446.514c0,0.404,0.064,0.787,0.148,1.164
		c-2.865,0.375-5.214,1.51-7.158,2.468c-1.631,0.802-3.043,1.498-4.25,1.498c-2.824,0-5.123-2.299-5.123-5.122
		c0-2.825,2.299-5.124,5.123-5.124c1.206,0,2.618,0.697,4.25,1.497c1.944,0.959,4.292,2.095,7.158,2.469
		C114.211,445.74,114.154,446.124,114.154,446.514z M88.543,462.916v15.367h46.101c1.695,0,3.071,1.376,3.071,3.071v12.296h2.05
		v9.222h2.051v-9.222h6.144v9.222h2.051v-9.222h2.049v-17.417c0-7.345-5.973-13.317-13.316-13.317h-11.272v-2.05
		c0-1.696-1.376-3.072-3.073-3.072h-1.021v-8.145c2.81,0.233,5.094,1.348,7.137,2.347c1.866,0.916,3.47,1.704,5.158,1.704
		c3.958,0,7.174-3.221,7.174-7.173c0-3.958-3.223-7.171-7.174-7.171c-1.688,0-3.299,0.786-5.158,1.702
		c-2.058,1.006-4.363,2.135-7.201,2.348c-0.944-1.207-2.391-2-4.036-2c-1.646,0-3.1,0.789-4.036,2
		c-2.839-0.213-5.144-1.341-7.203-2.348c-1.865-0.916-3.469-1.702-5.157-1.702c-3.958,0-7.172,3.22-7.172,7.171
		c0,3.96,3.222,7.173,7.172,7.173c1.688,0,3.299-0.788,5.157-1.704c2.044-1.005,4.328-2.12,7.139-2.347v8.145h-1.022
		c-1.696,0-3.072,1.376-3.072,3.072v2.05H88.543z"/>
</g>
<rect x="84.735" y="516.319" fill="none" width="77.424" height="69.609"/>
<text transform="matrix(1 0 0 1 84.7354 534.3252)"><tspan x="0" y="0" fill="#C9CACA" font-family="'MicrosoftYaHei'" font-size="21">自来水</tspan><tspan x="0" y="25.2" fill="#C9CACA" font-family="'MicrosoftYaHei'" font-size="21">进水口</tspan></text>
<rect x="1203.35" y="464.061" fill="none" width="77.426" height="34.805"/>
<text transform="matrix(1 0 0 1 1203.3496 482.0664)" fill="#C9CACA" font-family="'MicrosoftYaHei'" font-size="21">出水口</text>
<g>
	<linearGradient id="SVGID_1_" gradientUnits="userSpaceOnUse" x1="482.6089" y1="776.4688" x2="661.6028" y2="597.4748">
		<stop  offset="0" style="stop-color:#999999"/>
		<stop  offset="0.5215" style="stop-color:#FFFFFF"/>
		<stop  offset="1" style="stop-color:#999999"/>
	</linearGradient>
	<path fill="url(#SVGID_1_)" stroke="#595757" stroke-width="4" stroke-miterlimit="10" d="M656.828,761.76
		c32.577-1.206,57.824-33.581,57.824-74.79c0-41.207-25.248-73.581-57.824-74.789v-0.111H489.312
		c-33.467,0-59.712,32.893-59.712,74.9c0,42.012,26.245,74.902,59.712,74.902h167.516V761.76z"/>
	<rect x="495.856" y="653.815" fill="none" width="152.54" height="42.886"/>
	<text transform="matrix(1 0 0 1 495.8564 674.4082)" fill="#231815" font-family="'MicrosoftYaHei'" font-size="24.0176">无负压稳压管</text>
	<rect x="487.087" y="695.294" fill="none" width="170.077" height="29.886"/>
	<text transform="matrix(1 0 0 1 487.0879 715.8867)" fill="#231815" font-family="'MicrosoftYaHei'" font-size="24.0176">液位：860mm</text>
</g>
<path fill="#2368FB" d="M1444.918,330.665h-39.854c-1.054,0-1.908,0.854-1.908,1.907v56.967c-0.001,1.054,0.854,1.908,1.908,1.908
	l0,0h39.854c1.055,0,1.909-0.854,1.909-1.906c0-0.002,0-0.002,0-0.002v-56.967C1446.827,331.518,1445.973,330.665,1444.918,330.665z
	 M1443.014,387.632h-10.657v-9.008c0-1.054-0.854-1.908-1.909-1.908h-10.914c-1.054,0-1.907,0.854-1.907,1.908v9.008h-10.655
	v-53.154h36.043V387.632z M1412.684,345.395h0.538c1.054,0,1.909-0.854,1.909-1.907v-0.54c0-1.054-0.855-1.907-1.909-1.907h-0.538
	c-1.054,0-1.908,0.853-1.908,1.907v0.54C1410.775,344.54,1411.63,345.395,1412.684,345.395z M1420.708,345.395h0.541
	c1.054,0,1.907-0.854,1.907-1.907v-0.54c0-1.054-0.854-1.907-1.907-1.907h-0.541c-1.053,0-1.907,0.853-1.907,1.907v0.54
	C1418.801,344.54,1419.653,345.395,1420.708,345.395z M1428.732,345.395h0.542c1.053,0,1.907-0.854,1.907-1.907v-0.54
	c0-1.054-0.854-1.907-1.907-1.907h-0.542c-1.052,0-1.906,0.853-1.906,1.907c0,0,0,0,0,0v0.54
	C1426.826,344.541,1427.681,345.395,1428.732,345.395z M1436.758,345.395h0.54c1.055,0,1.908-0.854,1.908-1.907v-0.54
	c0-1.054-0.854-1.907-1.907-1.907h-0.001h-0.54c-1.051,0-1.907,0.853-1.907,1.907c0,0,0,0,0,0v0.54
	C1434.851,344.541,1435.707,345.395,1436.758,345.395z M1412.684,353.802h0.538c1.054,0,1.909-0.854,1.909-1.907v-0.541
	c0-1.054-0.855-1.907-1.909-1.908h-0.538c-1.054,0-1.908,0.854-1.908,1.908v0.541
	C1410.775,352.947,1411.63,353.802,1412.684,353.802z M1420.708,353.802h0.541c1.054,0,1.907-0.855,1.907-1.907v-0.541
	c0-1.054-0.854-1.907-1.907-1.908h-0.541c-1.055,0-1.907,0.854-1.907,1.908v0.541
	C1418.801,352.947,1419.655,353.802,1420.708,353.802z M1428.732,353.802h0.542c1.053,0,1.907-0.855,1.907-1.907v-0.541
	c0-1.054-0.854-1.907-1.907-1.908h-0.542c-1.052,0-1.906,0.854-1.906,1.908v0.541
	C1426.826,352.947,1427.681,353.802,1428.732,353.802L1428.732,353.802z M1412.684,362.208h0.538c1.055,0,1.909-0.854,1.909-1.908
	v-0.541c0-1.053-0.855-1.906-1.909-1.906h-0.538c-1.054,0-1.908,0.853-1.908,1.906v0.541c0,1.053,0.853,1.908,1.906,1.908H1412.684z
	 M1420.708,362.208h0.541c1.054,0,1.907-0.854,1.907-1.907v-0.001v-0.541c0-1.053-0.854-1.906-1.907-1.906h-0.541
	c-1.053,0-1.907,0.853-1.907,1.906v0.541C1418.801,361.354,1419.653,362.208,1420.708,362.208
	C1420.707,362.208,1420.707,362.208,1420.708,362.208z M1412.684,370.616h0.538c1.054,0,1.909-0.855,1.909-1.908v-0.541
	c0-1.055-0.854-1.907-1.909-1.907h-0.538c-1.054,0-1.908,0.853-1.908,1.906v0.001v0.541
	C1410.775,369.76,1411.63,370.616,1412.684,370.616z"/>
<path fill="#2368FB" d="M1444.918,442.87h-39.854c-1.054,0-1.908,0.853-1.908,1.906v56.968c-0.001,1.052,0.854,1.908,1.908,1.908
	l0,0h39.854c1.055,0,1.909-0.854,1.909-1.906c0-0.002,0-0.002,0-0.002v-56.968C1446.827,443.723,1445.973,442.87,1444.918,442.87z
	 M1443.014,499.837h-10.657v-9.009c0-1.052-0.854-1.908-1.909-1.908h-10.914c-1.054,0-1.907,0.856-1.907,1.908v9.009h-10.655
	v-53.152h36.043V499.837z M1412.684,457.6h0.538c1.054,0,1.909-0.854,1.909-1.906v-0.542c0-1.052-0.855-1.906-1.909-1.906h-0.538
	c-1.054,0-1.908,0.854-1.908,1.906v0.542C1410.775,456.746,1411.63,457.6,1412.684,457.6z M1420.708,457.6h0.541
	c1.054,0,1.907-0.854,1.907-1.906v-0.542c0-1.052-0.854-1.906-1.907-1.906h-0.541c-1.053,0-1.907,0.854-1.907,1.906v0.542
	C1418.801,456.746,1419.653,457.6,1420.708,457.6z M1428.732,457.6h0.542c1.053,0,1.907-0.854,1.907-1.906v-0.542
	c0-1.052-0.854-1.906-1.907-1.906h-0.542c-1.052,0-1.906,0.854-1.906,1.906l0,0v0.542
	C1426.826,456.746,1427.681,457.6,1428.732,457.6z M1436.758,457.6h0.54c1.055,0,1.908-0.854,1.908-1.906v-0.542
	c0-1.052-0.854-1.906-1.907-1.906h-0.001h-0.54c-1.051,0-1.907,0.854-1.907,1.906l0,0v0.542
	C1434.851,456.746,1435.707,457.6,1436.758,457.6z M1412.684,466.007h0.538c1.054,0,1.909-0.854,1.909-1.906v-0.54
	c0-1.055-0.855-1.909-1.909-1.909h-0.538c-1.054,0-1.908,0.854-1.908,1.909v0.54C1410.775,465.152,1411.63,466.007,1412.684,466.007
	z M1420.708,466.007h0.541c1.054,0,1.907-0.854,1.907-1.906v-0.54c0-1.055-0.854-1.909-1.907-1.909h-0.541
	c-1.055,0-1.907,0.854-1.907,1.909v0.54C1418.801,465.152,1419.655,466.007,1420.708,466.007z M1428.732,466.007h0.542
	c1.053,0,1.907-0.854,1.907-1.906v-0.54c0-1.055-0.854-1.909-1.907-1.909h-0.542c-1.052,0-1.906,0.854-1.906,1.909v0.54
	C1426.826,465.152,1427.681,466.007,1428.732,466.007L1428.732,466.007z M1412.684,474.413h0.538c1.055,0,1.909-0.854,1.909-1.909
	v-0.54c0-1.052-0.855-1.906-1.909-1.906h-0.538c-1.054,0-1.908,0.854-1.908,1.906v0.54c0,1.055,0.853,1.909,1.906,1.909H1412.684z
	 M1420.708,474.413h0.541c1.054,0,1.907-0.854,1.907-1.906v-0.003v-0.54c0-1.052-0.854-1.906-1.907-1.906h-0.541
	c-1.053,0-1.907,0.854-1.907,1.906v0.54C1418.801,473.559,1419.653,474.413,1420.708,474.413
	C1420.707,474.413,1420.707,474.413,1420.708,474.413z M1412.684,482.821h0.538c1.054,0,1.909-0.856,1.909-1.909v-0.54
	c0-1.055-0.854-1.907-1.909-1.907h-0.538c-1.054,0-1.908,0.853-1.908,1.907l0,0v0.54
	C1410.775,481.965,1411.63,482.821,1412.684,482.821z"/>
<path fill="#2368FB" d="M1444.918,557.934h-39.854c-1.054,0-1.908,0.854-1.908,1.905v56.966c-0.001,1.057,0.854,1.909,1.908,1.909
	l0,0h39.854c1.055,0,1.909-0.853,1.909-1.907c0-0.002,0-0.002,0-0.002v-56.966C1446.827,558.787,1445.973,557.934,1444.918,557.934z
	 M1443.014,614.898h-10.657v-9.006c0-1.055-0.854-1.906-1.909-1.906h-10.914c-1.054,0-1.907,0.852-1.907,1.906v9.006h-10.655
	v-53.153h36.043V614.898z M1412.684,572.662h0.538c1.054,0,1.909-0.854,1.909-1.905v-0.541c0-1.056-0.855-1.908-1.909-1.908h-0.538
	c-1.054,0-1.908,0.853-1.908,1.908v0.541C1410.775,571.809,1411.63,572.662,1412.684,572.662z M1420.708,572.662h0.541
	c1.054,0,1.907-0.854,1.907-1.905v-0.541c0-1.056-0.854-1.908-1.907-1.908h-0.541c-1.053,0-1.907,0.853-1.907,1.908v0.541
	C1418.801,571.809,1419.653,572.662,1420.708,572.662z M1428.732,572.662h0.542c1.053,0,1.907-0.854,1.907-1.905v-0.541
	c0-1.056-0.854-1.908-1.907-1.908h-0.542c-1.052,0-1.906,0.853-1.906,1.908l0,0v0.541
	C1426.826,571.809,1427.681,572.662,1428.732,572.662z M1436.758,572.662h0.54c1.055,0,1.908-0.854,1.908-1.905v-0.541
	c0-1.056-0.854-1.908-1.907-1.908h-0.001h-0.54c-1.051,0-1.907,0.853-1.907,1.908l0,0v0.541
	C1434.851,571.809,1435.707,572.662,1436.758,572.662z M1412.684,581.07h0.538c1.054,0,1.909-0.856,1.909-1.907v-0.541
	c0-1.053-0.855-1.906-1.909-1.906h-0.538c-1.054,0-1.908,0.854-1.908,1.906v0.541C1410.775,580.214,1411.63,581.07,1412.684,581.07z
	 M1420.708,581.07h0.541c1.054,0,1.907-0.856,1.907-1.907v-0.541c0-1.053-0.854-1.906-1.907-1.906h-0.541
	c-1.055,0-1.907,0.854-1.907,1.906v0.541C1418.801,580.214,1419.655,581.07,1420.708,581.07z M1428.732,581.07h0.542
	c1.053,0,1.907-0.856,1.907-1.907v-0.541c0-1.053-0.854-1.906-1.907-1.906h-0.542c-1.052,0-1.906,0.854-1.906,1.906v0.541
	C1426.826,580.214,1427.681,581.07,1428.732,581.07L1428.732,581.07z M1412.684,589.476h0.538c1.055,0,1.909-0.853,1.909-1.907
	v-0.541c0-1.053-0.855-1.906-1.909-1.906h-0.538c-1.054,0-1.908,0.854-1.908,1.906v0.541c0,1.055,0.853,1.907,1.906,1.907H1412.684z
	 M1420.708,589.476h0.541c1.054,0,1.907-0.853,1.907-1.905v-0.002v-0.541c0-1.053-0.854-1.906-1.907-1.906h-0.541
	c-1.053,0-1.907,0.854-1.907,1.906v0.541C1418.801,588.623,1419.653,589.476,1420.708,589.476
	C1420.707,589.476,1420.707,589.476,1420.708,589.476z M1412.684,597.884h0.538c1.054,0,1.909-0.855,1.909-1.907v-0.541
	c0-1.055-0.854-1.906-1.909-1.906h-0.538c-1.054,0-1.908,0.852-1.908,1.903v0.003v0.541
	C1410.775,597.028,1411.63,597.884,1412.684,597.884z"/>
<rect x="1459.476" y="353.163" fill="none" width="77.426" height="34.804"/>
<text transform="matrix(1 0 0 1 1459.4756 373.7554)" fill="#C9CACA" font-family="'MicrosoftYaHei'" font-size="24.0176">建筑</text>
<rect x="1459.476" y="460.934" fill="none" width="77.426" height="34.805"/>
<text transform="matrix(1 0 0 1 1459.4756 481.5264)" fill="#C9CACA" font-family="'MicrosoftYaHei'" font-size="24.0176">建筑</text>
<rect x="1459.476" y="575.962" fill="none" width="77.426" height="34.805"/>
<text transform="matrix(1 0 0 1 1459.4756 596.5547)" fill="#C9CACA" font-family="'MicrosoftYaHei'" font-size="24.0176">建筑</text>
<g>
	<path fill="#18F5FE" d="M938.774,88.086c0.097,0.64,0.239,1.271,0.426,1.89c1.117,3.669,3.778,6.643,7.208,8.126l0,0l0,0V74.104
		l0,0l0,0c-4.572,1.979-7.779,6.605-7.779,12l0,0C938.629,86.777,938.679,87.44,938.774,88.086z M967.139,93.213
		c-0.904-0.841-1.928-1.551-3.042-2.099c-1.673-0.822-3.544-1.284-5.522-1.284c-0.66,0-1.309,0.051-1.941,0.15
		c-1.897,0.297-3.657,1.021-5.182,2.073c-0.508,0.352-0.99,0.739-1.444,1.159c-1.226,1.139-2.211,2.535-2.931,4.084
		c-0.082-0.038-0.159-0.09-0.243-0.127v24c0.569-0.247,1.121-0.535,1.648-0.862c3.677-2.285,6.132-6.418,6.132-11.137l0,0
		c0-0.046-0.009-0.09-0.01-0.137c-0.014-1.298-0.203-2.555-0.563-3.735c-0.983-3.237-3.184-5.908-6.04-7.517h22.313
		C969.586,96.029,968.498,94.474,967.139,93.213z M923.243,98.219c0.479,1.158,1.121,2.24,1.908,3.214
		c2.335,2.894,5.873,4.738,9.83,4.738c3.616,0,6.856-1.563,9.176-4.038c1.065-1.135,1.954-2.444,2.563-3.915H923.243L923.243,98.219
		z"/>
	<path fill="#18F5FE" d="M946.778,65.935c-17.481,0-31.703,14.222-31.703,31.702c0,17.481,14.222,31.703,31.703,31.703
		c17.479,0,31.701-14.221,31.701-31.703C978.479,80.156,964.257,65.935,946.778,65.935z M946.778,124.461
		c-14.792,0-26.826-12.034-26.826-26.825c0-14.792,12.034-26.825,26.826-26.825c14.789,0,26.824,12.033,26.824,26.825
		C973.603,112.428,961.567,124.461,946.778,124.461z"/>
</g>
<g>
	<path fill="#18F5FE" d="M939.056,204.186c0.096,0.639,0.239,1.271,0.427,1.889c1.117,3.67,3.777,6.644,7.207,8.127l0,0l0,0v-24l0,0
		l0,0c-4.572,1.979-7.78,6.605-7.78,12l0,0C938.909,202.876,938.959,203.539,939.056,204.186z M967.421,209.312
		c-0.905-0.84-1.93-1.55-3.043-2.099c-1.672-0.822-3.544-1.283-5.523-1.283c-0.659,0-1.308,0.051-1.941,0.15
		c-1.897,0.297-3.655,1.021-5.18,2.074c-0.509,0.351-0.991,0.739-1.445,1.159c-1.226,1.14-2.211,2.535-2.931,4.085
		c-0.082-0.039-0.158-0.09-0.242-0.127v23.999c0.568-0.246,1.12-0.534,1.647-0.862c3.677-2.284,6.132-6.418,6.132-11.137l0,0
		c0-0.046-0.01-0.091-0.011-0.137c-0.013-1.299-0.202-2.555-0.562-3.736c-0.984-3.236-3.184-5.907-6.04-7.516h22.313
		C969.868,212.128,968.778,210.572,967.421,209.312z M923.524,214.318c0.479,1.158,1.122,2.24,1.907,3.214
		c2.337,2.893,5.875,4.738,9.831,4.738c3.617,0,6.857-1.563,9.177-4.038c1.065-1.135,1.953-2.444,2.562-3.915H923.524
		L923.524,214.318z"/>
	<path fill="#18F5FE" d="M947.06,182.034c-17.482,0-31.703,14.221-31.703,31.702c0,17.481,14.221,31.703,31.703,31.703
		c17.479,0,31.702-14.221,31.702-31.703C978.762,196.255,964.539,182.034,947.06,182.034z M947.06,240.561
		c-14.791,0-26.825-12.034-26.825-26.825c0-14.792,12.034-26.824,26.825-26.824c14.79,0,26.824,12.033,26.824,26.824
		C973.884,228.526,961.85,240.561,947.06,240.561z"/>
</g>
<g>
	<path fill="#18F5FE" d="M938.916,320.284c0.096,0.639,0.237,1.271,0.426,1.89c1.117,3.669,3.777,6.643,7.208,8.126l0,0l0,0v-24l0,0
		l0,0c-4.573,1.978-7.781,6.605-7.781,12l0,0C938.769,318.975,938.819,319.638,938.916,320.284z M967.279,325.41
		c-0.904-0.84-1.929-1.55-3.042-2.099c-1.672-0.822-3.544-1.283-5.523-1.283c-0.66,0-1.308,0.05-1.94,0.15
		c-1.898,0.296-3.657,1.021-5.182,2.073c-0.508,0.351-0.991,0.738-1.443,1.158c-1.228,1.14-2.213,2.536-2.932,4.085
		c-0.083-0.039-0.158-0.09-0.242-0.127v23.999c0.568-0.246,1.12-0.534,1.646-0.861c3.678-2.285,6.133-6.418,6.133-11.137l0,0
		c0-0.046-0.009-0.09-0.01-0.137c-0.015-1.299-0.202-2.555-0.562-3.736c-0.984-3.236-3.186-5.907-6.041-7.516h22.313
		C969.727,328.227,968.638,326.671,967.279,325.41z M923.383,330.416c0.479,1.158,1.122,2.24,1.908,3.215
		c2.337,2.893,5.874,4.738,9.831,4.738c3.616,0,6.856-1.563,9.177-4.038c1.065-1.135,1.953-2.443,2.563-3.915H923.383
		L923.383,330.416z"/>
	<path fill="#18F5FE" d="M946.918,298.132c-17.48,0-31.702,14.222-31.702,31.702c0,17.481,14.222,31.703,31.702,31.703
		s31.702-14.222,31.702-31.703C978.62,312.354,964.398,298.132,946.918,298.132z M946.918,356.659
		c-14.79,0-26.825-12.034-26.825-26.825c0-14.792,12.035-26.824,26.825-26.824c14.791,0,26.825,12.032,26.825,26.824
		C973.743,344.625,961.709,356.659,946.918,356.659z"/>
</g>
<g>
	<path fill="#18F5FE" d="M939.196,436.383c0.097,0.64,0.239,1.271,0.428,1.89c1.116,3.669,3.776,6.643,7.206,8.126l0,0l0,0v-24l0,0
		l0,0c-4.572,1.978-7.779,6.605-7.779,12l0,0C939.051,435.074,939.101,435.737,939.196,436.383z M967.562,441.509
		c-0.905-0.84-1.929-1.55-3.043-2.099c-1.672-0.821-3.544-1.283-5.522-1.283c-0.66,0-1.309,0.051-1.941,0.15
		c-1.897,0.297-3.657,1.022-5.182,2.073c-0.508,0.352-0.99,0.739-1.444,1.159c-1.226,1.141-2.211,2.536-2.93,4.085
		c-0.083-0.039-0.159-0.09-0.242-0.127v23.998c0.567-0.245,1.119-0.533,1.646-0.86c3.677-2.284,6.132-6.419,6.132-11.136l0,0
		c0-0.048-0.009-0.093-0.01-0.139c-0.014-1.299-0.202-2.554-0.563-3.735c-0.983-3.235-3.184-5.907-6.039-7.516h22.312
		C970.008,444.325,968.92,442.77,967.562,441.509z M923.665,446.515c0.479,1.158,1.121,2.241,1.908,3.215
		c2.336,2.894,5.873,4.738,9.83,4.738c3.616,0,6.856-1.563,9.177-4.038c1.065-1.135,1.953-2.443,2.562-3.915H923.665
		L923.665,446.515z"/>
	<path fill="#18F5FE" d="M947.2,414.23c-17.481,0-31.703,14.222-31.703,31.702c0,17.482,14.222,31.705,31.703,31.705
		c17.479,0,31.702-14.223,31.702-31.705C978.902,428.453,964.679,414.23,947.2,414.23z M947.2,472.759
		c-14.791,0-26.825-12.035-26.825-26.827c0-14.791,12.034-26.824,26.825-26.824c14.79,0,26.824,12.033,26.824,26.824
		C974.024,460.724,961.99,472.759,947.2,472.759z"/>
</g>
<g>
	<path fill="#18F5FE" d="M939.45,562.684c0.096,0.639,0.239,1.271,0.427,1.89c1.117,3.669,3.776,6.644,7.207,8.126l0,0l0,0V548.7
		l0,0l0,0c-4.572,1.978-7.78,6.605-7.78,12l0,0C939.304,561.375,939.354,562.037,939.45,562.684z M967.815,567.811
		c-0.905-0.842-1.93-1.551-3.043-2.101c-1.672-0.821-3.544-1.282-5.523-1.282c-0.66,0-1.308,0.051-1.941,0.15
		c-1.897,0.296-3.657,1.021-5.182,2.072c-0.508,0.352-0.989,0.74-1.443,1.16c-1.227,1.139-2.211,2.534-2.931,4.084
		c-0.083-0.039-0.158-0.09-0.242-0.127v23.998c0.568-0.245,1.12-0.533,1.647-0.86c3.676-2.285,6.132-6.419,6.132-11.137l0,0
		c0-0.047-0.01-0.092-0.011-0.138c-0.013-1.299-0.202-2.555-0.562-3.736c-0.984-3.236-3.184-5.906-6.04-7.516h22.312
		C970.262,570.626,969.173,569.07,967.815,567.811z M923.919,572.815c0.479,1.158,1.12,2.24,1.907,3.215
		c2.337,2.893,5.873,4.738,9.831,4.738c3.616,0,6.856-1.564,9.177-4.039c1.065-1.135,1.952-2.443,2.562-3.914H923.919
		L923.919,572.815z"/>
	<path fill="#18F5FE" d="M947.454,540.531c-17.482,0-31.704,14.222-31.704,31.702c0,17.481,14.222,31.702,31.704,31.702
		c17.479,0,31.702-14.221,31.702-31.702C979.156,554.753,964.934,540.531,947.454,540.531z M947.454,599.059
		c-14.791,0-26.825-12.035-26.825-26.825c0-14.792,12.034-26.825,26.825-26.825c14.789,0,26.824,12.033,26.824,26.825
		C974.278,587.023,962.243,599.059,947.454,599.059z"/>
</g>
<g>
	<path fill="#18F5FE" d="M939.309,678.782c0.097,0.639,0.239,1.271,0.428,1.891c1.116,3.668,3.777,6.643,7.207,8.126l0,0l0,0v-24
		l0,0l0,0c-4.573,1.979-7.78,6.605-7.78,12l0,0C939.163,677.474,939.213,678.136,939.309,678.782z M967.674,683.908
		c-0.904-0.841-1.929-1.55-3.043-2.1c-1.672-0.821-3.543-1.282-5.522-1.282c-0.66,0-1.308,0.051-1.941,0.15
		c-1.897,0.297-3.656,1.021-5.181,2.073c-0.509,0.351-0.991,0.738-1.444,1.158c-1.227,1.14-2.212,2.535-2.931,4.085
		c-0.083-0.039-0.158-0.091-0.242-0.127v23.999c0.568-0.246,1.119-0.535,1.646-0.861c3.678-2.284,6.132-6.419,6.132-11.137l0,0
		c0-0.047-0.009-0.092-0.01-0.138c-0.014-1.299-0.201-2.554-0.562-3.736c-0.983-3.237-3.185-5.907-6.04-7.517h22.312
		C970.121,686.725,969.032,685.168,967.674,683.908z M923.777,688.914c0.479,1.158,1.122,2.24,1.908,3.215
		c2.337,2.893,5.874,4.738,9.83,4.738c3.617,0,6.857-1.563,9.177-4.039c1.066-1.135,1.954-2.443,2.563-3.914H923.777
		L923.777,688.914z"/>
	<path fill="#18F5FE" d="M947.313,656.63c-17.48,0-31.702,14.222-31.702,31.702s14.222,31.702,31.702,31.702
		s31.702-14.222,31.702-31.702S964.793,656.63,947.313,656.63z M947.313,715.157c-14.79,0-26.825-12.035-26.825-26.825
		c0-14.793,12.035-26.824,26.825-26.824c14.791,0,26.825,12.031,26.825,26.824C974.138,703.122,962.104,715.157,947.313,715.157z"/>
</g>
<g>
	<path fill="#18F5FE" d="M939.591,794.881c0.097,0.639,0.239,1.271,0.427,1.891c1.116,3.668,3.777,6.643,7.207,8.126l0,0l0,0v-24
		l0,0l0,0c-4.572,1.979-7.779,6.604-7.779,12l0,0C939.445,793.572,939.495,794.234,939.591,794.881z M967.955,800.007
		c-0.904-0.841-1.928-1.55-3.042-2.1c-1.672-0.821-3.544-1.281-5.522-1.281c-0.66,0-1.309,0.05-1.941,0.149
		c-1.897,0.297-3.657,1.021-5.182,2.073c-0.508,0.351-0.99,0.738-1.444,1.158c-1.226,1.14-2.211,2.536-2.931,4.085
		c-0.082-0.039-0.159-0.091-0.242-0.127v23.999c0.568-0.247,1.12-0.535,1.647-0.861c3.677-2.284,6.132-6.419,6.132-11.137l0,0
		c0-0.047-0.009-0.092-0.01-0.138c-0.014-1.299-0.203-2.554-0.563-3.736c-0.983-3.236-3.184-5.907-6.04-7.517h22.313
		C970.402,802.823,969.314,801.267,967.955,800.007z M924.06,805.013c0.479,1.158,1.121,2.24,1.908,3.215
		c2.335,2.893,5.873,4.738,9.83,4.738c3.616,0,6.856-1.563,9.176-4.038c1.065-1.136,1.954-2.444,2.563-3.915H924.06L924.06,805.013z
		"/>
	<path fill="#18F5FE" d="M947.595,772.729c-17.481,0-31.703,14.221-31.703,31.702s14.222,31.704,31.703,31.704
		c17.479,0,31.701-14.223,31.701-31.704S965.073,772.729,947.595,772.729z M947.595,831.256c-14.792,0-26.825-12.035-26.825-26.825
		c0-14.793,12.033-26.824,26.825-26.824c14.789,0,26.824,12.031,26.824,26.824C974.419,819.221,962.384,831.256,947.595,831.256z"/>
</g>
<g>
	<path fill="#2368FB" d="M336.488,686.739l0.385,6.359l5.758-0.217l16.459-22.357l-0.058-0.057L336.488,686.739z"/>
	<path fill="#2368FB" d="M341.099,656.855c-15.886,0-28.764,12.878-28.764,28.763c0,7.462,2.841,14.26,7.501,19.371l4.095-2.625
		c-3.932-4.032-6.456-9.44-6.778-15.436h3.687v-2.348h-3.7c0.527-12.375,10.43-22.32,22.786-22.916v3.337h2.348v-3.337
		c12.356,0.596,22.259,10.541,22.786,22.916h-3.711v2.348h3.697c-0.319,5.929-2.791,11.285-6.649,15.302l3.965,2.759
		c4.66-5.111,7.501-11.909,7.501-19.371C369.862,669.733,356.984,656.855,341.099,656.855z"/>
</g>
<g>
	<linearGradient id="SVGID_2_" gradientUnits="userSpaceOnUse" x1="484.2095" y1="349.4053" x2="663.2034" y2="170.4114">
		<stop  offset="0" style="stop-color:#999999"/>
		<stop  offset="0.5215" style="stop-color:#FFFFFF"/>
		<stop  offset="1" style="stop-color:#999999"/>
	</linearGradient>
	<path fill="url(#SVGID_2_)" stroke="#595757" stroke-width="4" stroke-miterlimit="10" d="M658.43,334.698
		c32.576-1.208,57.824-33.582,57.824-74.791c0-41.208-25.248-73.582-57.824-74.79v-0.112H490.913
		c-33.467,0-59.712,32.893-59.712,74.901c0,42.011,26.245,74.901,59.712,74.901H658.43V334.698z"/>
	<rect x="497.457" y="226.753" fill="none" width="152.54" height="42.886"/>
	<text transform="matrix(1 0 0 1 497.457 247.3462)" fill="#231815" font-family="'MicrosoftYaHei'" font-size="24.0176">无负压稳压管</text>
	<rect x="488.688" y="268.232" fill="none" width="170.077" height="29.886"/>
	<text transform="matrix(1 0 0 1 488.6885 288.8257)" fill="#231815" font-family="'MicrosoftYaHei'" font-size="24.0176">液位：860mm</text>
</g>
<g>
	<path fill="#2368FB" d="M338.089,261.149l0.385,6.36l5.758-0.217l16.458-22.358l-0.057-0.056L338.089,261.149z"/>
	<path fill="#2368FB" d="M342.7,231.266c-15.885,0-28.763,12.878-28.763,28.762c0,7.463,2.841,14.261,7.501,19.371l4.094-2.625
		c-3.931-4.032-6.456-9.44-6.778-15.436h3.687v-2.348h-3.701c0.527-12.375,10.43-22.32,22.786-22.917v3.337h2.348v-3.337
		c12.356,0.596,22.259,10.542,22.786,22.917h-3.71v2.348h3.697c-0.319,5.928-2.791,11.285-6.649,15.302l3.965,2.758
		c4.66-5.11,7.501-11.908,7.501-19.371C371.463,244.144,358.585,231.266,342.7,231.266z"/>
</g>
<g>
	<path fill="#2368FB" d="M1170.727,261.149l0.386,6.36l5.756-0.217l16.459-22.358l-0.056-0.056L1170.727,261.149z"/>
	<path fill="#2368FB" d="M1175.337,231.265c-15.885,0-28.763,12.878-28.763,28.763c0,7.463,2.842,14.26,7.501,19.371l4.095-2.625
		c-3.932-4.032-6.456-9.44-6.779-15.436h3.688v-2.348h-3.701c0.527-12.375,10.429-22.32,22.787-22.917v3.337h2.348v-3.337
		c12.354,0.596,22.257,10.542,22.784,22.917h-3.71v2.348h3.696c-0.318,5.928-2.789,11.285-6.647,15.301l3.966,2.759
		c4.659-5.111,7.501-11.908,7.501-19.371C1204.102,244.144,1191.224,231.265,1175.337,231.265z"/>
</g>
<g>
	<rect x="817.977" y="800.99" fill="#B5B5B6" width="97.881" height="3.431"/>
	<rect x="978.764" y="801.853" fill="#B5B5B6" width="97.884" height="3.431"/>
	<rect x="257.784" y="685.254" fill="#B5B5B6" width="54.551" height="3.432"/>
	<rect x="369.862" y="685.254" fill="#B5B5B6" width="61.772" height="3.432"/>
	<rect x="717.067" y="685.254" fill="#B5B5B6" width="100.628" height="3.432"/>
	<rect x="256.067" y="260.205" fill="#B5B5B6" width="3.431" height="428.545"/>
	<rect x="1280.338" y="257.861" fill="#B5B5B6" width="3.431" height="431.325"/>
	<rect x="1339.238" y="363.705" fill="#B5B5B6" width="3.431" height="223.37"/>
	<rect x="1339.238" y="361.99" fill="#B5B5B6" width="58.9" height="3.431"/>
	<rect x="1282.053" y="472.762" fill="#B5B5B6" width="116.658" height="3.431"/>
	<rect x="1339.238" y="587.075" fill="#B5B5B6" width="58.9" height="3.431"/>
	<rect x="1075.615" y="95.341" fill="#B5B5B6" width="3.432" height="351.25"/>
	<rect x="159.801" y="472.762" fill="#B5B5B6" width="99.696" height="3.431"/>
	<rect x="817.161" y="94.197" fill="#B5B5B6" width="97.88" height="3.431"/>
	<rect x="977.947" y="95.059" fill="#B5B5B6" width="97.884" height="3.431"/>
	<rect x="817.442" y="210.296" fill="#B5B5B6" width="97.881" height="3.431"/>
	<rect x="978.229" y="211.158" fill="#B5B5B6" width="97.885" height="3.431"/>
	<rect x="817.302" y="326.395" fill="#B5B5B6" width="97.881" height="3.431"/>
	<rect x="978.088" y="327.257" fill="#B5B5B6" width="97.885" height="3.431"/>
	<rect x="817.582" y="442.493" fill="#B5B5B6" width="97.881" height="3.431"/>
	<rect x="978.369" y="443.355" fill="#B5B5B6" width="97.885" height="3.431"/>
	<rect x="815.445" y="94.197" fill="#B5B5B6" width="3.432" height="351.25"/>
	<rect x="1076.01" y="569.516" fill="#B5B5B6" width="3.432" height="235.574"/>
	<rect x="817.836" y="568.793" fill="#B5B5B6" width="97.882" height="3.432"/>
	<rect x="978.623" y="569.655" fill="#B5B5B6" width="97.885" height="3.432"/>
	<rect x="817.695" y="684.892" fill="#B5B5B6" width="97.882" height="3.431"/>
	<rect x="978.482" y="685.754" fill="#B5B5B6" width="97.884" height="3.432"/>
	<rect x="815.839" y="568.748" fill="#B5B5B6" width="3.432" height="235.574"/>
	<rect x="256.067" y="258.192" fill="#B5B5B6" width="57.87" height="3.431"/>
	<rect x="371.463" y="258.192" fill="#B5B5B6" width="61.771" height="3.431"/>
	<rect x="718.668" y="258.192" fill="#B5B5B6" width="96.777" height="3.431"/>
	<rect x="1079.442" y="258.192" fill="#B5B5B6" width="66.727" height="3.431"/>
	<rect x="1204.778" y="258.192" fill="#B5B5B6" width="75.56" height="3.431"/>
	<rect x="1079.292" y="686.006" fill="#B5B5B6" width="66.727" height="3.432"/>
	<rect x="1204.629" y="686.006" fill="#B5B5B6" width="79.14" height="3.432"/>
</g>
<g>
	<path fill="#2368FB" d="M1170.575,688.964l0.386,6.359l5.757-0.217l16.458-22.358l-0.055-0.055L1170.575,688.964z"/>
	<path fill="#2368FB" d="M1175.186,659.08c-15.884,0-28.762,12.878-28.762,28.763c0,7.463,2.841,14.26,7.501,19.371l4.095-2.625
		c-3.932-4.032-6.456-9.439-6.779-15.436h3.688v-2.347h-3.701c0.527-12.376,10.43-22.32,22.787-22.917v3.337h2.347v-3.337
		c12.355,0.597,22.258,10.541,22.785,22.917h-3.71v2.347h3.697c-0.32,5.929-2.791,11.286-6.648,15.302l3.965,2.759
		c4.659-5.111,7.501-11.908,7.501-19.371C1203.95,671.958,1191.072,659.08,1175.186,659.08z"/>
</g>
</svg>
