<?xml version="1.0" standalone="no"?><!DOCTYPE svg PUBLIC "-//W3C//DTD SVG 1.1//EN" "http://www.w3.org/Graphics/SVG/1.1/DTD/svg11.dtd"><svg t="1542164391749" class="icon" style="" viewBox="0 0 1024 1024" version="1.1" xmlns="http://www.w3.org/2000/svg" p-id="8283" xmlns:xlink="http://www.w3.org/1999/xlink" width="200" height="200"><defs><style type="text/css"></style></defs><path d="M902.57435 670.059364a92.229381 92.229381 0 0 0-31.992352 6.009992L775.633267 512.005719 870.559147 347.850674a92.869228 92.869228 0 1 0 31.992352-179.991258c-41.487225 0-76.210353 27.353461-88.19606 64.864494H614.01476L573.510157 162.752065a93.006338 93.006338 0 1 0-123.056298 0l-40.516029 70.006122H209.574299c-11.97428-37.511033-46.708834-64.864494-88.19606-64.864494a93.006338 93.006338 0 1 0 31.992352 179.991259l94.960157 164.109341-94.925879 164.120767a92.869228 92.869228 0 1 0-31.992352 179.991258c41.487225 0 76.210353-27.353461 88.196059-64.864494h200.329254l40.516029 70.006122a93.006338 93.006338 0 1 0 123.056298 0l40.516028-70.006122h200.363532c11.97428 37.511033 46.708834 64.864494 88.196059 64.864494a92.994912 92.994912 0 0 0 0-186.00125z m-92.035141-418.688483a91.406721 91.406721 0 0 0-0.959771 9.540576 92.674989 92.674989 0 0 0 44.19515 78.838297l-88.927314 153.677549L624.812178 251.370881z m-56.432224 260.634838l-150.821089 260.634837H420.666694l-150.821089-260.634837 150.821089-260.634838h182.630628zM465.615949 173.675168a90.264137 90.264137 0 0 0 92.720692 0l34.186113 59.083019h-161.104345zM170.189428 339.749754a92.674989 92.674989 0 0 0 44.195149-78.838297 91.406721 91.406721 0 0 0-0.95977-9.540576h185.761308l-140.0808 242.056422z m43.235379 432.879377a91.406721 91.406721 0 0 0 0.95977-9.540577 92.674989 92.674989 0 0 0-44.195149-78.838296l88.927313-153.677549 140.069374 242.067847z m344.92326 77.695712a90.264137 90.264137 0 0 0-92.720692 0l-34.186114-59.083019h161.104345z m66.44126-77.695712l140.069373-242.056422 88.927313 153.677549a92.674989 92.674989 0 0 0-44.195149 78.838296 91.406721 91.406721 0 0 0 0.959771 9.540577z" fill="#bfbfbf" p-id="8284"></path><path d="M902.57435 260.900031m-74.40507 0a74.405071 74.405071 0 1 0 148.810141 0 74.405071 74.405071 0 1 0-148.810141 0Z" fill="#bfbfbf" p-id="8285"></path><path d="M121.378239 260.900031m-74.40507 0a74.405071 74.405071 0 1 0 148.810141 0 74.405071 74.405071 0 1 0-148.810141 0Z" fill="#bfbfbf" p-id="8286"></path><path d="M511.982008 930.499963m-74.405071 0a74.405071 74.405071 0 1 0 148.810141 0 74.405071 74.405071 0 1 0-148.810141 0Z" fill="#bfbfbf" p-id="8287"></path><path d="M902.57435 763.09998m-74.40507 0a74.405071 74.405071 0 1 0 148.810141 0 74.405071 74.405071 0 1 0-148.810141 0Z" fill="#bfbfbf" p-id="8288"></path><path d="M121.378239 763.09998m-74.40507 0a74.405071 74.405071 0 1 0 148.810141 0 74.405071 74.405071 0 1 0-148.810141 0Z" fill="#bfbfbf" p-id="8289"></path><path d="M511.982008 93.500049m-74.405071 0a74.405071 74.405071 0 1 0 148.810141 0 74.405071 74.405071 0 1 0-148.810141 0Z" fill="#bfbfbf" p-id="8290"></path></svg>