<?xml version="1.0" standalone="no"?><!DOCTYPE svg PUBLIC "-//W3C//DTD SVG 1.1//EN" "http://www.w3.org/Graphics/SVG/1.1/DTD/svg11.dtd"><svg t="1542164367153" class="icon" style="" viewBox="0 0 1024 1024" version="1.1" xmlns="http://www.w3.org/2000/svg" p-id="7814" xmlns:xlink="http://www.w3.org/1999/xlink" width="200" height="200"><defs><style type="text/css"></style></defs><path d="M735.418182 465.454545c4.654545-6.981818 6.981818-16.290909 6.981818-25.6 0-13.963636-4.654545-23.272727-13.963636-32.581818-9.309091-9.309091-25.6-13.963636-46.545455-13.963636h-93.090909v93.090909h83.781818c18.618182 0 32.581818-2.327273 41.890909-4.654545 9.309091-2.327273 16.290909-6.981818 20.945455-16.29091z" p-id="7815" fill="#bfbfbf"></path><path d="M916.945455 211.781818L572.509091 16.290909C535.272727-4.654545 488.727273-4.654545 453.818182 16.290909L107.054545 211.781818C69.818182 232.727273 46.545455 272.290909 46.545455 314.181818v393.309091c0 41.890909 23.272727 81.454545 60.50909 102.4l346.763637 197.818182c18.618182 11.636364 39.563636 16.290909 60.509091 16.290909s41.890909-4.654545 60.509091-16.290909l346.763636-197.818182C954.181818 791.272727 977.454545 751.709091 977.454545 709.818182V316.509091c0-44.218182-23.272727-83.781818-60.50909-104.727273zM444.509091 672.581818l-37.236364-93.090909h-123.345454l-34.909091 93.090909H197.818182l123.345454-321.163636H372.363636l130.327273 321.163636h-58.181818z m318.836364 0L719.127273 605.090909c-11.636364-18.618182-20.945455-32.581818-30.254546-41.890909-6.981818-9.309091-13.963636-16.290909-18.618182-18.618182-4.654545-4.654545-11.636364-6.981818-16.290909-6.981818-4.654545 0-11.636364-2.327273-20.945454-2.327273h-41.890909v137.309091h-51.2V351.418182h141.963636c27.927273 0 48.872727 2.327273 65.163636 9.309091 16.290909 6.981818 27.927273 16.290909 37.236364 32.581818 9.309091 13.963636 13.963636 32.581818 13.963636 48.872727 0 23.272727-6.981818 44.218182-23.272727 58.181818-11.636364 13.963636-30.254545 23.272727-53.527273 27.927273 4.654545 2.327273 9.309091 6.981818 11.636364 9.309091 11.636364 11.636364 23.272727 25.6 34.909091 41.890909l58.181818 93.090909h-62.836363z" p-id="7816" fill="#bfbfbf"></path><path d="M346.763636 409.6c-2.327273 13.963636-6.981818 27.927273-11.636363 41.890909L302.545455 535.272727h90.763636l-30.254546-79.127272c-6.981818-18.618182-11.636364-32.581818-16.290909-46.545455z" p-id="7817" fill="#bfbfbf"></path></svg>