<?xml version="1.0" standalone="no"?><!DOCTYPE svg PUBLIC "-//W3C//DTD SVG 1.1//EN" "http://www.w3.org/Graphics/SVG/1.1/DTD/svg11.dtd"><svg t="1567495861150" class="icon" viewBox="0 0 1024 1024" version="1.1" xmlns="http://www.w3.org/2000/svg" p-id="952" xmlns:xlink="http://www.w3.org/1999/xlink" width="200" height="200"><defs><style type="text/css"></style></defs><path d="M512 0C229.2224 0 0 229.2224 0 512s229.2224 512 512 512 512-229.2224 512-512A512 512 0 0 0 512 0z m195.072 527.872l-108.544-108.544 28.16-28.16-51.2-51.2a64.1024 64.1024 0 1 0-90.624 90.624l108.544 108.544a140.8 140.8 0 0 1-199.168 199.168L371.712 716.8l-28.672 28.672-108.544-109.568L343.04 527.36l108.544 108.544-25.6 25.6 22.528 22.528a64.1024 64.1024 0 0 0 90.624-90.624L430.592 484.864a140.8 140.8 0 0 1 199.168-199.168l51.2 51.2 26.112-26.112 109.056 108.544-109.056 108.544z" fill="#13227a" p-id="953"></path></svg>