<?xml version="1.0" standalone="no"?><!DOCTYPE svg PUBLIC "-//W3C//DTD SVG 1.1//EN" "http://www.w3.org/Graphics/SVG/1.1/DTD/svg11.dtd"><svg t="1567495885680" class="icon" viewBox="0 0 1024 1024" version="1.1" xmlns="http://www.w3.org/2000/svg" p-id="2697" xmlns:xlink="http://www.w3.org/1999/xlink" width="200" height="200"><defs><style type="text/css"></style></defs><path d="M273.066667 477.866667h477.832533V273.066667H273.066667v204.8z m102.4-136.533334h68.266666a34.133333 34.133333 0 0 1 0 68.266667h-68.266666a34.133333 34.133333 0 0 1 0-68.266667z" p-id="2698" fill="#707070"></path><path d="M512 0C229.239467 0 0 229.239467 0 512s229.239467 512 512 512 512-229.239467 512-512S794.760533 0 512 0z m273.032533 819.2H238.933333a34.133333 34.133333 0 1 1 0-68.266667h546.0992a34.133333 34.133333 0 1 1 0 68.266667z m0-136.567467H238.933333a34.133333 34.133333 0 0 1 0-68.266666h546.0992a34.167467 34.167467 0 0 1 0 68.266666zM819.2 477.866667a68.266667 68.266667 0 0 1-68.3008 68.266666H273.066667a68.266667 68.266667 0 0 1-68.266667-68.266666V273.066667a68.266667 68.266667 0 0 1 68.266667-68.266667h477.832533A68.266667 68.266667 0 0 1 819.2 273.066667v204.8z" p-id="2699" fill="#707070"></path></svg>