<?xml version="1.0" standalone="no"?><!DOCTYPE svg PUBLIC "-//W3C//DTD SVG 1.1//EN" "http://www.w3.org/Graphics/SVG/1.1/DTD/svg11.dtd"><svg t="1602492161471" class="icon" viewBox="0 0 1028 1024" version="1.1" xmlns="http://www.w3.org/2000/svg" p-id="2231" xmlns:xlink="http://www.w3.org/1999/xlink" width="200.78125" height="200"><defs><style type="text/css"></style></defs><path d="M512.31516445 1015.36654222c-135.2704 0-262.43868445-52.42652445-358.0928-147.60391111S5.82542222 645.87776 5.82542222 511.11480889s52.70983111-261.39761778 148.36394667-356.61027556 222.79964445-147.60391111 358.0928-147.60391111 262.43868445 52.42652445 358.08142222 147.60391111S1018.76280889 376.38826667 1018.76280889 511.07043555 966.06208 772.5056 870.36586667 867.71712s-222.77688889 147.64942222-358.04956445 147.64942222z m0-936.14535111c-116.02147555 0-225.06268445 44.93539555-307.0464 126.54592s-127.08977778 190.00547555-127.08977778 305.34883556 45.11630222 223.7952 127.05564444 305.3056S396.22656 942.96746667 512.28216889 942.96746667s225.06268445-44.92401778 307.0464-126.54592 127.08977778-190.00661333 127.05564444-305.34997334c-0.03413333-115.34222222-45.11744-223.76106667-127.05564444-305.26919111S628.30364445 79.22119111 512.31516445 79.22119111z m253.25226666 395.71911111H548.49194667V257.86595555c-0.86471111-19.98051555-17.76412445-35.47591111-37.74350222-34.61006222-18.76764445 0.81237333-33.79655111 15.84241778-34.61006223 34.61006222v217.0732089H259.07541333c-19.97937778 0.86584889-35.47477333 17.76526222-34.61006222 37.74464 0.81351111 18.76650667 15.84241778 33.79541333 34.6112 34.60892444H476.13724445v217.07434666c0.86584889 19.97937778 17.76526222 35.47477333 37.74464 34.61006223 18.76650667-0.81351111 33.79541333-15.84355555 34.60892444-34.6112V547.29386667h217.07434666c19.97937778 0.86698667 36.87879111-14.62840889 37.74350223-34.60892445 0.86698667-19.98051555-14.62954667-36.87992889-34.61006223-37.74464a36.04821333 36.04821333 0 0 0-3.13230222 0z" fill="#707070" p-id="2232"></path></svg>