<?xml version="1.0" standalone="no"?><!DOCTYPE svg PUBLIC "-//W3C//DTD SVG 1.1//EN" "http://www.w3.org/Graphics/SVG/1.1/DTD/svg11.dtd"><svg t="1566639240133" class="icon" viewBox="0 0 1053 1024" version="1.1" xmlns="http://www.w3.org/2000/svg" p-id="2175" data-spm-anchor-id="a313x.7781069.0.i2" xmlns:xlink="http://www.w3.org/1999/xlink" width="205.6640625" height="200"><defs><style type="text/css"></style></defs><path d="M1016.424621 504.461395L144.888314 820.273792A55.969547 55.969547 0 0 1 73.547368 786.956834L3.309632 593.600804A55.969547 55.969547 0 0 1 36.773684 522.18631l871.536307-316.253681a55.895999 55.895999 0 0 1 71.561588 33.5376l70.017094 193.135388a55.895999 55.895999 0 0 1-33.464052 71.855778zM46.849673 549.693026a26.477052 26.477052 0 0 0-15.812684 33.905336l69.943547 193.135388a26.477052 26.477052 0 0 0 33.905336 15.886231l871.46276-315.812396a26.403505 26.403505 0 0 0 15.959779-33.905337L952.217769 250.06105a26.477052 26.477052 0 0 0-33.905336-15.886231zM704.583782 993.55139a513.728363 513.728363 0 0 1-539.469942-122.235725 14.709474 14.709474 0 0 1 20.961-20.666811A482.691374 482.691374 0 0 0 1011.202758 551.605257a14.709474 14.709474 0 1 1 29.418947 2.427064 513.801911 513.801911 0 0 1-336.037923 439.519069zM889.923149 176.513682a14.709474 14.709474 0 0 1-15.518495-3.456726A482.691374 482.691374 0 0 0 48.982547 472.321195a14.709474 14.709474 0 0 1-29.418947-2.427063 512.183868 512.183868 0 0 1 875.213675-317.209797 14.709474 14.709474 0 0 1 0 20.813905 13.974 13.974 0 0 1-4.854126 3.015442z" fill="#DD5C55" p-id="2176" data-spm-anchor-id="a313x.7781069.0.i3" class="selected"></path><path d="M643.318825 824.539539A332.21346 332.21346 0 0 1 367.295554 801.666308a14.709474 14.709474 0 0 1 14.709474-25.668032 302.720965 302.720965 0 0 0 431.502406-156.361703 14.709474 14.709474 0 0 1 27.506715 10.517273 332.360554 332.360554 0 0 1-197.695324 194.385693zM690.68333 248.884292a14.709474 14.709474 0 0 1-12.208863-0.956116A302.720965 302.720965 0 0 0 246.972061 404.510522a14.709474 14.709474 0 1 1-27.506716-10.443726 332.139912 332.139912 0 0 1 473.424406-171.806651 14.709474 14.709474 0 0 1 5.810242 20.004884 13.974 13.974 0 0 1-8.016663 6.619263zM247.781082 291.909502l-38.465274 20.225526-5.148315 43.098758-31.110537-30.301516-42.583926 8.457948 19.195863-38.980105-21.108094-37.876895 42.951662 6.251527 29.492495-31.846011 7.354737 42.804568 39.421389 18.1662z" fill="#DD5C55" p-id="2177"></path><path d="M448.418301 168.423472l-42.583926-8.237305-30.963442 30.44861-5.368958-43.098757-38.465273-20.078432 39.274294-18.313294 7.207642-42.878116 29.639589 31.772463 42.951663-6.398621-21.034547 37.950442 19.342958 38.83301zM633.610572 163.348704L663.985635 132.385262l-8.310852-42.657473 38.906557 19.342957 37.950442-21.108094-6.325074 42.951662 31.772463 29.566042-42.804568 7.207642-18.313294 39.421389-20.151979-38.465273-43.098758-5.29541zM827.84917 730.325361l28.977663-32.287294-10.149536-42.21619 39.715578 17.577821 36.994326-22.726136-4.486389 43.172305 33.022768 28.168641-42.436831 9.119874-16.548158 40.083315-21.843568-37.509157-43.245853-3.383179zM622.578467 847.045033l42.583926 8.310853 30.963442-30.44861 5.368958 43.098757 38.465273 20.004884-39.347842 18.386842-7.134094 42.804568-29.639589-31.698915-42.951663 6.398621 21.034547-37.950442-19.342958-38.906558zM434.959132 861.828054l-30.375062 31.036989 8.384399 42.583926-38.906557-19.26941-37.950442 21.108095 6.325074-43.025211-31.772463-29.566041 42.804568-7.207642 18.313295-39.421389 20.078431 38.53882 43.098757 5.221863z" fill="#DD5C55" p-id="2178"></path></svg>