<?xml version="1.0" encoding="utf-8"?>
<svg version="1.1" xmlns:xlink="http://www.w3.org/1999/xlink" width="12px" height="12px" viewBox="856 106  12 12" xmlns="http://www.w3.org/2000/svg">
  <path d="M 862 106  C 865.36 106  868 108.64  868 112  C 868 115.36  865.36 118  862 118  C 858.64 118  856 115.36  856 112  C 856 108.64  858.64 106  862 106  Z " fill-rule="nonzero" fill="#ffffff" stroke="none" />
  <path d="M 862 106.5  C 865.08 106.5  867.5 108.92  867.5 112  C 867.5 115.08  865.08 117.5  862 117.5  C 858.92 117.5  856.5 115.08  856.5 112  C 856.5 108.92  858.92 106.5  862 106.5  Z " stroke-width="1" stroke="#797979" fill="none" />
  <path d="M 862 115  C 860.32 115  859 113.68  859 112  C 859 110.32  860.32 109  862 109  C 863.68 109  865 110.32  865 112  C 865 113.68  863.68 115  862 115  " fill-rule="nonzero" fill="#797979" stroke="none" />
</svg>