<?xml version="1.0" encoding="utf-8"?>
<svg version="1.1" xmlns:xlink="http://www.w3.org/1999/xlink" width="12px" height="12px" viewBox="777 106  12 12" xmlns="http://www.w3.org/2000/svg">
  <path d="M 783 106  C 786.36 106  789 108.64  789 112  C 789 115.36  786.36 118  783 118  C 779.64 118  777 115.36  777 112  C 777 108.64  779.64 106  783 106  Z " fill-rule="nonzero" fill="#ffffff" stroke="none" />
  <path d="M 783 106.5  C 786.08 106.5  788.5 108.92  788.5 112  C 788.5 115.08  786.08 117.5  783 117.5  C 779.92 117.5  777.5 115.08  777.5 112  C 777.5 108.92  779.92 106.5  783 106.5  Z " stroke-width="1" stroke="#797979" fill="none" />
  <path d="M 783 115  C 781.32 115  780 113.68  780 112  C 780 110.32  781.32 109  783 109  C 784.68 109  786 110.32  786 112  C 786 113.68  784.68 115  783 115  " fill-rule="nonzero" fill="#797979" stroke="none" />
</svg>