<?xml version="1.0" standalone="no"?><!DOCTYPE svg PUBLIC "-//W3C//DTD SVG 1.1//EN" "http://www.w3.org/Graphics/SVG/1.1/DTD/svg11.dtd"><svg t="1567586006141" class="icon" viewBox="0 0 1024 1024" version="1.1" xmlns="http://www.w3.org/2000/svg" p-id="3080" xmlns:xlink="http://www.w3.org/1999/xlink" width="200" height="200"><defs><style type="text/css"></style></defs><path d="M520.486188 1024c-5.657459 0-11.314917 0-16.972376-5.657459L282.872928 871.248619c-11.314917-5.657459-16.972376-16.972376-16.972376-33.944752V367.734807L0 45.259669 11.314917 22.629834C16.972376 11.314917 28.287293 0 45.259669 0h763.756906l22.629834 39.60221-22.629834 22.629834-254.585636 305.502763v616.662983c0 11.314917-5.657459 22.629834-11.314917 28.287293-5.657459 5.657459-16.972376 11.314917-22.629834 11.314917z m-192.353591-198.01105l164.066298 113.149172V350.762431l231.955801-277.21547H107.491713l226.298342 277.21547v475.226519z m396.022099-367.734806h260.243094c22.629834 0 33.944751 5.657459 33.944751 28.287292s-11.314917 33.944751-33.944751 33.944752h-260.243094c-22.629834 0-33.944751-11.314917-33.944751-33.944752 0-22.629834 11.314917-28.287293 33.944751-28.287292z m0 175.381215h260.243094c22.629834 0 33.944751 11.314917 33.944751 33.944751s-11.314917 28.287293-33.944751 28.287293h-260.243094c-22.629834 0-33.944751-11.314917-33.944751-33.944751s11.314917-28.287293 33.944751-28.287293z m0 175.381216h260.243094c22.629834 0 33.944751 11.314917 33.944751 33.944751 0 22.629834-11.314917 33.944751-33.944751 33.944751h-260.243094c-22.629834 0-33.944751-11.314917-33.944751-33.944751 0-22.629834 11.314917-33.944751 33.944751-33.944751z" p-id="3081" fill="#ffffff"></path></svg>