<?xml version="1.0" standalone="no"?><!DOCTYPE svg PUBLIC "-//W3C//DTD SVG 1.1//EN" "http://www.w3.org/Graphics/SVG/1.1/DTD/svg11.dtd"><svg t="1602207993792" class="icon" viewBox="0 0 1181 1024" version="1.1" xmlns="http://www.w3.org/2000/svg" p-id="6456" xmlns:xlink="http://www.w3.org/1999/xlink" width="230.6640625" height="200"><defs><style type="text/css"></style></defs><path d="M24.654769 1000.526769A24.654769 24.654769 0 0 1 0 975.793231V25.6a24.733538 24.733538 0 0 1 49.388308 0v925.538462h1107.495384a24.733538 24.733538 0 0 1 0 49.388307H24.654769z" p-id="6457" fill="#707070"></path><path d="M314.210462 838.419692a47.891692 47.891692 0 0 1-47.812924 47.734154H175.182769a47.970462 47.970462 0 0 1-47.891692-47.734154V737.28c0-26.308923 21.582769-47.734154 47.891692-47.734154h91.214769c26.308923 0 47.812923 21.425231 47.812924 47.734154v101.139692z m237.568 0a47.970462 47.970462 0 0 1-47.891693 47.734154H412.593231a47.970462 47.970462 0 0 1-47.891693-47.734154V521.058462c0-26.308923 21.582769-47.734154 47.891693-47.734154h91.293538c26.308923 0 47.891692 21.425231 47.891693 47.734154v317.36123zM1038.966154 835.741538c0 27.648-22.843077 50.412308-50.412308 50.412308h-86.016a50.648615 50.648615 0 0 1-50.412308-50.412308V422.675692c0-27.726769 22.606769-50.412308 50.412308-50.412307h85.937231c27.726769 0 50.412308 22.685538 50.412308 50.412307v413.065846zM789.267692 838.419692a47.970462 47.970462 0 0 1-47.891692 47.734154h-91.372308a47.970462 47.970462 0 0 1-47.812923-47.734154V619.283692c0-26.308923 21.582769-47.812923 47.891693-47.812923h91.293538c26.308923 0 47.891692 21.504 47.891692 47.812923v219.136z" p-id="6458" fill="#707070"></path><path d="M1000.763077 76.169846l-181.878154 19.849846 59.864615 59.943385-197.159384 241.033846-204.721231-189.203692a37.021538 37.021538 0 0 0-49.703385-0.315077L126.345846 479.074462a37.021538 37.021538 0 0 0 49.467077 54.823384l275.771077-248.989538 208.659692 192.905846a37.021538 37.021538 0 0 0 53.563077-3.702154l217.403077-265.688615 49.624616 49.624615 19.928615-181.956923z" p-id="6459" fill="#707070"></path></svg>