<?xml version="1.0" standalone="no"?><!DOCTYPE svg PUBLIC "-//W3C//DTD SVG 1.1//EN" "http://www.w3.org/Graphics/SVG/1.1/DTD/svg11.dtd"><svg t="1602207973224" class="icon" viewBox="0 0 1024 1024" version="1.1" xmlns="http://www.w3.org/2000/svg" p-id="5456" xmlns:xlink="http://www.w3.org/1999/xlink" width="200" height="200"><defs><style type="text/css"></style></defs><path d="M410.197333 869.333333v-1.472L166.058667 699.008v-366.933333l244.117333-168.277334 86.848 17.898667V154.154667a207.765333 207.765333 0 0 1 59.434667-10.154667 231.018667 231.018667 0 0 1 61.44 10.090667v52.437333l40.298666 8.298667v-20.48a208.128 208.128 0 0 1 59.413334-10.069334 231.594667 231.594667 0 0 1 61.44 10.069334v45.397333l66.730666 13.76v493.930667L410.24 869.333333z m50.346667-80.853333l157.333333-40.810667v-191.36l-157.333333-5.504z m197.632-51.2l137.28-35.626667v-139.093333l-137.28-4.8z m137.28-215.018667V296.853333l-137.28-28.928v249.6z m-177.578667-6.186666V259.2l-157.333333-33.152v284.288z" p-id="5457" fill="#8a8a8a"></path></svg>