<?xml version="1.0" standalone="no"?><!DOCTYPE svg PUBLIC "-//W3C//DTD SVG 1.1//EN" "http://www.w3.org/Graphics/SVG/1.1/DTD/svg11.dtd"><svg t="1603087716093" class="icon" viewBox="0 0 1024 1024" version="1.1" xmlns="http://www.w3.org/2000/svg" p-id="3663" xmlns:xlink="http://www.w3.org/1999/xlink" width="200" height="200"><defs><style type="text/css"></style></defs><path d="M731.428571 731.428571c0 77.019429 61.586286 146.285714 146.285715 146.285715s146.285714-61.586286 146.285714-146.285715c0-77.019429-61.586286-146.285714-146.285714-146.285714s-146.285714 69.266286-146.285715 146.285714z m219.428572-219.428571V64C950.857143 29.110857 917.577143 0 877.714286 0c-39.862857 0-73.142857 29.110857-73.142857 64V512c19.968-5.851429 46.518857-11.702857 73.142857-11.702857s53.174857 0 73.142857 11.702857zM365.714286 292.571429c0 77.019429 61.586286 146.285714 146.285714 146.285714 77.019429 0 146.285714-61.586286 146.285714-146.285714s-69.266286-146.285714-146.285714-146.285715-146.285714 61.586286-146.285714 146.285715z m219.428571-219.428572V61.878857C585.142857 28.16 551.862857 0 512 0c-39.862857 0-73.142857 28.16-73.142857 61.878857V73.142857c26.624-5.632 46.518857-11.264 73.142857-11.264S565.174857 67.510857 585.142857 73.142857zM0 585.142857c0 77.019429 61.586286 146.285714 146.285714 146.285714s146.285714-61.586286 146.285715-146.285714-69.266286-146.285714-153.965715-146.285714S0 508.123429 0 585.142857z m219.428571-219.428571V59.977143C219.428571 27.355429 184.612571 0 142.774857 0 107.958857 0 73.142857 27.282286 73.142857 59.977143V365.714286c20.918857-10.971429 48.786286-16.384 76.653714-16.384 27.794286 0 48.713143 5.485714 69.632 16.384z m-146.285714 438.857143v150.454857c0 37.595429 33.28 68.973714 73.142857 68.973714 39.862857 0 73.142857-31.378286 73.142857-68.973714V804.571429a251.977143 251.977143 0 0 1-73.142857 12.507428c-26.624 0-53.174857 0-73.142857-12.507428z m365.714286-292.571429v448c0 34.889143 33.28 64 73.142857 64 39.862857 0 73.142857-29.110857 73.142857-64V512c-19.968 11.702857-46.518857 11.702857-73.142857 11.702857s-46.518857 0-73.142857-11.702857z m365.714286 438.857143v11.264c0 33.718857 33.28 61.878857 73.142857 61.878857 39.862857 0 73.142857-28.16 73.142857-61.878857V950.857143a278.089143 278.089143 0 0 1-73.142857 11.264c-26.624 0-53.174857-5.632-73.142857-11.264z" p-id="3664" fill="#bfbfbf"></path></svg>