<?xml version="1.0" encoding="utf-8"?>
<svg version="1.1" xmlns:xlink="http://www.w3.org/1999/xlink" width="12px" height="12px" viewBox="584 416  12 12" xmlns="http://www.w3.org/2000/svg">
  <path d="M 590 416  C 593.36 416  596 418.64  596 422  C 596 425.36  593.36 428  590 428  C 586.64 428  584 425.36  584 422  C 584 418.64  586.64 416  590 416  Z " fill-rule="nonzero" fill="#f0f0f0" stroke="none" />
  <path d="M 590 416.5  C 593.08 416.5  595.5 418.92  595.5 422  C 595.5 425.08  593.08 427.5  590 427.5  C 586.92 427.5  584.5 425.08  584.5 422  C 584.5 418.92  586.92 416.5  590 416.5  Z " stroke-width="1" stroke="#797979" fill="none" />
  <path d="M 590 425  C 588.32 425  587 423.68  587 422  C 587 420.32  588.32 419  590 419  C 591.68 419  593 420.32  593 422  C 593 423.68  591.68 425  590 425  " fill-rule="nonzero" fill="#797979" stroke="none" />
</svg>