<?xml version="1.0" encoding="utf-8"?>
<svg version="1.1" xmlns:xlink="http://www.w3.org/1999/xlink" width="12px" height="12px" viewBox="675 416  12 12" xmlns="http://www.w3.org/2000/svg">
  <path d="M 681 416  C 684.36 416  687 418.64  687 422  C 687 425.36  684.36 428  681 428  C 677.64 428  675 425.36  675 422  C 675 418.64  677.64 416  681 416  Z " fill-rule="nonzero" fill="#f0f0f0" stroke="none" />
  <path d="M 681 416.5  C 684.08 416.5  686.5 418.92  686.5 422  C 686.5 425.08  684.08 427.5  681 427.5  C 677.92 427.5  675.5 425.08  675.5 422  C 675.5 418.92  677.92 416.5  681 416.5  Z " stroke-width="1" stroke="#797979" fill="none" />
  <path d="M 681 425  C 679.32 425  678 423.68  678 422  C 678 420.32  679.32 419  681 419  C 682.68 419  684 420.32  684 422  C 684 423.68  682.68 425  681 425  " fill-rule="nonzero" fill="#797979" stroke="none" />
</svg>