<?xml version="1.0" encoding="utf-8"?>
<!-- Generator: Adobe Illustrator 16.0.0, SVG Export Plug-In . SVG Version: 6.00 Build 0)  -->
<!DOCTYPE svg PUBLIC "-//W3C//DTD SVG 1.1//EN" "http://www.w3.org/Graphics/SVG/1.1/DTD/svg11.dtd">
<svg version="1.1" id="图形" xmlns="http://www.w3.org/2000/svg" xmlns:xlink="http://www.w3.org/1999/xlink" x="0px" y="0px"
	 width="1000.637px" height="1000.678px" viewBox="0 0 1000.637 1000.678" enable-background="new 0 0 1000.637 1000.678"
	 xml:space="preserve">
<g>
	<linearGradient id="SVGID_1_" gradientUnits="userSpaceOnUse" x1="335.8589" y1="790.7764" x2="823.852" y2="302.7833">
		<stop  offset="0" style="stop-color:#00CCFF"/>
		<stop  offset="1" style="stop-color:#0066FF"/>
	</linearGradient>
	<path fill="url(#SVGID_1_)" d="M285.421,564.456c71.083,0,128.952-57.571,128.952-128.294c0-70.736-57.868-128.308-128.952-128.308
		c-71.082,0-128.95,57.571-128.95,128.308C156.472,506.885,214.339,564.456,285.421,564.456z M890.468,657.905
		c-22.563-27.626-53.36-49.518-91.48-65.103c-46.067-18.771-103.154-28.319-169.698-28.319c-66.546,0-123.659,9.484-169.701,28.319
		c-38.118,15.545-68.905,37.451-91.474,65.103c-39.227,48.114-39.713,96.951-39.713,98.984c0,35.365,28.937,64.156,64.478,64.156
		h472.824c35.534,0,64.459-28.767,64.459-64.156C930.162,754.856,929.741,706.02,890.468,657.905z M629.289,521.694
		c94.824,0,171.928-76.723,171.928-171.045c0-94.32-77.104-171.07-171.928-171.07c-94.826,0-171.938,76.725-171.938,171.045
		C457.352,444.943,534.463,521.694,629.289,521.694z"/>
	<linearGradient id="SVGID_2_" gradientUnits="userSpaceOnUse" x1="117.1665" y1="829.9824" x2="348.1863" y2="598.9626">
		<stop  offset="0" style="stop-color:#00CCFF"/>
		<stop  offset="1" style="stop-color:#0066FF"/>
	</linearGradient>
	<path fill="url(#SVGID_2_)" d="M357.417,624.981c9.674-19.873-8.487-21.854-20.332-22.511
		c-7.333-0.366-163.416-8.644-238.074,77.459c-30.643,35.324-28.505,75.385-28.505,76.96c0,35.365,28.93,64.156,64.472,64.156
		h146.063l0.085,0.053c20.949,0,25.722-10.376,21.485-21.382C268.763,711.766,356.289,627.315,357.417,624.981z"/>
</g>
</svg>
