<?xml version="1.0" encoding="utf-8"?>
<!-- Generator: Adobe Illustrator 16.0.0, SVG Export Plug-In . SVG Version: 6.00 Build 0)  -->
<!DOCTYPE svg PUBLIC "-//W3C//DTD SVG 1.1//EN" "http://www.w3.org/Graphics/SVG/1.1/DTD/svg11.dtd">
<svg version="1.1" id="图形" xmlns="http://www.w3.org/2000/svg" xmlns:xlink="http://www.w3.org/1999/xlink" x="0px" y="0px"
	 width="1000.637px" height="1000.678px" viewBox="0 0 1000.637 1000.678" enable-background="new 0 0 1000.637 1000.678"
	 xml:space="preserve">
<linearGradient id="SVGID_1_" gradientUnits="userSpaceOnUse" x1="175.3232" y1="500.3389" x2="825.3135" y2="500.3389">
	<stop  offset="0" style="stop-color:#00CCFF"/>
	<stop  offset="1" style="stop-color:#0066FF"/>
</linearGradient>
<path fill="url(#SVGID_1_)" d="M708.5,271.919h116.813v153.272h-90.028c-21.508,45.083-67.266,76.634-120.532,76.634
	c-53.269,0-99.026-31.551-120.535-76.634h-46.875c-42.19,0-75.891,34.446-75.891,76.634v37.945h-76.637
	c21.579,85.634,110.193,129.767,110.193,229.838c0,113.907-114.802,111.675-114.802,111.675s-114.884,2.232-114.884-111.675
	c0-100.071,88.244-144.204,109.82-229.838h-72.915v-37.945c0-126.637,102.531-229.906,229.162-229.906h79.612
	c10.416-10.196,23.216-18.007,36.459-24.401v-51.492h-37.948c-21.129,0-38.689-16.816-38.689-37.945
	c0-21.129,17.335-38.69,38.471-38.69h191.064c21.054,0,38.318,17.561,38.318,38.69c0,21.129-16.812,37.945-37.946,37.945h-38.689
	v51.339C685.366,253.765,698.085,261.723,708.5,271.919z"/>
</svg>
