<?xml version="1.0" encoding="utf-8"?>
<!-- Generator: Adobe Illustrator 16.0.0, SVG Export Plug-In . SVG Version: 6.00 Build 0)  -->
<!DOCTYPE svg PUBLIC "-//W3C//DTD SVG 1.1//EN" "http://www.w3.org/Graphics/SVG/1.1/DTD/svg11.dtd">
<svg version="1.1" id="图形" xmlns="http://www.w3.org/2000/svg" xmlns:xlink="http://www.w3.org/1999/xlink" x="0px" y="0px"
	 width="1000.637px" height="1000.678px" viewBox="0 0 1000.637 1000.678" enable-background="new 0 0 1000.637 1000.678"
	 xml:space="preserve">
<linearGradient id="SVGID_1_" gradientUnits="userSpaceOnUse" x1="448.0942" y1="505.3887" x2="688.2178" y2="505.3887">
	<stop  offset="0" style="stop-color:#00CCFF"/>
	<stop  offset="1" style="stop-color:#0066FF"/>
</linearGradient>
<path fill="url(#SVGID_1_)" d="M500.372,185.89c46.973,213.014,187.846,319.526,187.846,425.989
	c0,106.511-46.974,213.008-187.846,213.008c-19.119,0-36.51-1.991-52.278-5.659c100.461-23.265,135.535-115.347,135.535-207.349
	c0-78.507-76.516-156.97-135.535-278.083C469.16,290.583,488,241.934,500.372,185.89z"/>
<linearGradient id="SVGID_2_" gradientUnits="userSpaceOnUse" x1="153.4482" y1="505.3652" x2="529.1572" y2="505.3652">
	<stop  offset="0" style="stop-color:#00CCFF"/>
	<stop  offset="1" style="stop-color:#0066FF"/>
</linearGradient>
<path fill="url(#SVGID_2_)" d="M341.306,185.89c46.973,213.014,187.852,319.479,187.852,425.989
	c0,106.511-46.975,212.962-187.852,212.962c-140.925,0-187.857-106.499-187.857-213.009
	C153.448,505.369,294.379,398.858,341.306,185.89z"/>
<linearGradient id="SVGID_3_" gradientUnits="userSpaceOnUse" x1="618.749" y1="505.3887" x2="858.876" y2="505.3887">
	<stop  offset="0" style="stop-color:#00CCFF"/>
	<stop  offset="1" style="stop-color:#0066FF"/>
</linearGradient>
<path fill="url(#SVGID_3_)" d="M671.02,185.89c46.973,213.014,187.856,319.526,187.856,425.989
	c0,106.511-46.973,213.008-187.856,213.008c-19.121,0-36.505-1.991-52.271-5.659c100.453-23.265,135.515-115.347,135.515-207.349
	c0-78.507-76.503-156.97-135.515-278.083C639.8,290.583,658.642,241.934,671.02,185.89z"/>
</svg>
