<?xml version="1.0" encoding="utf-8"?>
<!-- Generator: Adobe Illustrator 16.0.0, SVG Export Plug-In . SVG Version: 6.00 Build 0)  -->
<!DOCTYPE svg PUBLIC "-//W3C//DTD SVG 1.1//EN" "http://www.w3.org/Graphics/SVG/1.1/DTD/svg11.dtd">
<svg version="1.1" id="图形" xmlns="http://www.w3.org/2000/svg" xmlns:xlink="http://www.w3.org/1999/xlink" x="0px" y="0px"
	 width="1000.637px" height="1000.678px" viewBox="0 0 1000.637 1000.678" enable-background="new 0 0 1000.637 1000.678"
	 xml:space="preserve">
<linearGradient id="SVGID_1_" gradientUnits="userSpaceOnUse" x1="174.1719" y1="489.5889" x2="830.9707" y2="489.5889">
	<stop  offset="0" style="stop-color:#00CCFF"/>
	<stop  offset="1" style="stop-color:#0066FF"/>
</linearGradient>
<path fill="url(#SVGID_1_)" d="M826.069,760.4l-86.871-156.074c-8.173-14.739-30.586-24.572-55.86-24.85
	c-31.303,44.216-75.24,94.18-136.813,145.792c-12.281,10.295-27.77,15.963-43.79,16.01c-16.031,0.021-31.549-5.645-43.788-16.01
	c-61.58-51.636-105.513-101.609-136.791-145.813c-25.293,0.276-47.817,10.11-55.883,24.837L179.118,760.4
	c-9.065,16.193-5.396,36.541,8.76,48.556c6.902,5.874,15.674,9.119,24.74,9.13h580.085c9.026-0.047,17.74-3.277,24.606-9.13
	C831.414,796.919,835.062,776.605,826.069,760.4z M298.659,418.913c3.214,14.392,7.923,28.409,14.046,41.819
	c20.987,50.245,69.503,134.175,178.212,225.411c6.717,5.609,16.503,5.609,23.22,0c108.698-91.224,157.218-175.015,178.201-225.406
	c6.174-13.394,10.885-27.41,14.058-41.814c0.958-4.351,1.384-6.607,1.384-6.607c2.621-13.215,3.925-26.661,3.879-40.136
	c0-119.16-97.709-215.167-216.569-210.956c-104.116,3.67-190.751,85.76-200.592,190.458c-1.88,20.238-0.945,40.645,2.783,60.628
	C297.281,412.311,297.69,414.562,298.659,418.913L298.659,418.913z M502.62,246.143c70.194,0,127.188,57.545,127.188,128.387
	c0,70.841-57.015,128.45-127.21,128.45c-70.189,0-127.199-57.533-127.199-128.392c0-70.859,57.026-128.445,127.199-128.445H502.62z"
	/>
</svg>
