<?xml version="1.0" encoding="utf-8"?>
<!-- Generator: Adobe Illustrator 16.0.0, SVG Export Plug-In . SVG Version: 6.00 Build 0)  -->
<!DOCTYPE svg PUBLIC "-//W3C//DTD SVG 1.1//EN" "http://www.w3.org/Graphics/SVG/1.1/DTD/svg11.dtd">
<svg version="1.1" id="图形" xmlns="http://www.w3.org/2000/svg" xmlns:xlink="http://www.w3.org/1999/xlink" x="0px" y="0px"
	 width="1000.637px" height="1000.678px" viewBox="0 0 1000.637 1000.678" enable-background="new 0 0 1000.637 1000.678"
	 xml:space="preserve">
<path fill="#99CCFF" d="M500.317,169.892c0,0-203.014,241.626-233.904,343.139c-6.626,23.162-9.929,47.438-9.929,71.709
	c0,135.711,109.225,246.047,243.833,246.047S744.152,720.45,744.152,584.739C744.152,449.035,500.317,169.892,500.317,169.892z
	 M501.418,781.14h-1.101c-9.93,0-18.758-7.729-18.758-17.66c0-9.928,7.728-18.758,17.657-18.758
	c153.368-9.928,147.842-150.053,147.842-155.568c0-6.615,3.313-13.23,8.829-16.545c5.515-3.313,12.131-4.414,18.758-1.111
	c5.515,3.314,9.929,8.828,9.929,15.455C683.474,586.952,692.302,768.997,501.418,781.14z"/>
</svg>
