<?xml version="1.0" encoding="utf-8"?>
<!-- Generator: Adobe Illustrator 16.0.0, SVG Export Plug-In . SVG Version: 6.00 Build 0)  -->
<!DOCTYPE svg PUBLIC "-//W3C//DTD SVG 1.1//EN" "http://www.w3.org/Graphics/SVG/1.1/DTD/svg11.dtd">
<svg version="1.1" id="图形" xmlns="http://www.w3.org/2000/svg" xmlns:xlink="http://www.w3.org/1999/xlink" x="0px" y="0px"
	 width="1000.637px" height="1000.678px" viewBox="0 0 1000.637 1000.678" enable-background="new 0 0 1000.637 1000.678"
	 xml:space="preserve">
<path fill="#99CCFF" d="M299.87,679.231c0,13.756-11.25,25.055-25.013,25.055H202.87c-13.816,0-25.068-11.299-25.068-25.055V481.966
	c0-13.77,11.3-25.021,25.068-25.021h71.987c13.763,0,25.013,11.3,25.013,25.021V679.231z M474.188,679.231
	c0,13.756-11.3,25.055-25.063,25.055h-71.987c-13.768,0-25.068-11.299-25.068-25.055V362.952c0-13.763,11.301-25.063,25.068-25.063
	h71.987c13.763,0,25.063,11.3,25.063,25.063V679.231z M648.505,679.231c0,13.756-11.251,25.055-25.008,25.055h-72.034
	c-13.828,0-25.068-11.299-25.068-25.055V200.132c0-13.769,11.287-25.068,25.068-25.068h72.034c13.757,0,25.008,11.299,25.008,25.068
	V679.231z M822.834,679.231c0,13.756-11.298,25.055-25.067,25.055h-72.046c-13.66,0-25.104-11.299-25.104-25.055V419.35
	c0-13.768,11.395-25.066,25.104-25.066h72.046c13.77,0,25.067,11.298,25.067,25.066V679.231z M849.433,800.558
	c0,13.756-11.3,25.057-25.031,25.057H176.225c-13.817,0-25.068-11.301-25.068-25.057v-53.195c0-13.816,11.251-25.115,25.068-25.115
	h648.225c13.731,0,25.031,11.299,25.031,25.115v53.195H849.433z"/>
</svg>
