<?xml version="1.0" encoding="utf-8"?>
<!-- Generator: Adobe Illustrator 16.0.0, SVG Export Plug-In . SVG Version: 6.00 Build 0)  -->
<!DOCTYPE svg PUBLIC "-//W3C//DTD SVG 1.1//EN" "http://www.w3.org/Graphics/SVG/1.1/DTD/svg11.dtd">
<svg version="1.1" id="图形" xmlns="http://www.w3.org/2000/svg" xmlns:xlink="http://www.w3.org/1999/xlink" x="0px" y="0px"
	 width="1000.637px" height="1000.678px" viewBox="0 0 1000.637 1000.678" enable-background="new 0 0 1000.637 1000.678"
	 xml:space="preserve">
<path fill="#99CCFF" d="M611.832,207.384c-83.62-0.446-156.857,44.637-196.572,112.216c-22.423-10.157-46.737-15.481-71.357-15.628
	c-99.469-1.02-180.112,79.041-180.644,179.273c-0.09,9.61,0.679,19.117,2.027,28.387l0.436,3.012
	c11.313,66.758,69.477,115.274,136.688,115.274h355.966c73.521,0,139.769-45.707,165.091-115.24c0.339-0.952,0.726-2.026,1.11-3.046
	c8.493-24.365,12.819-49.987,12.808-75.785c0.046-125.906-100.528-227.783-225.564-228.463 M344.085,773.966
	c-9.49,18.108-31.098,24.597-48.283,14.722c-17.23-9.931-23.408-32.729-14.002-50.791c9.541-18.063,74.447-64.551,74.447-64.551
	S353.535,755.959,344.085,773.966 M719.304,773.966c-9.503,17.791-31.618,24.517-49.421,15.017
	c-0.183-0.091-0.363-0.181-0.544-0.295c-17.757-10.022-24.189-32.729-14.428-50.791c9.808-18.063,76.962-64.551,76.962-64.551
	S729.11,755.959,719.304,773.966 M531.902,773.966c-9.534,18.108-31.091,24.597-48.332,14.722
	c-17.175-10.022-23.396-32.729-13.952-50.791c9.49-18.063,74.447-64.551,74.447-64.551S541.393,755.959,531.902,773.966"/>
</svg>
