<?xml version="1.0" encoding="utf-8"?>
<!-- Generator: Adobe Illustrator 16.0.0, SVG Export Plug-In . SVG Version: 6.00 Build 0)  -->
<!DOCTYPE svg PUBLIC "-//W3C//DTD SVG 1.1//EN" "http://www.w3.org/Graphics/SVG/1.1/DTD/svg11.dtd">
<svg version="1.1" id="图形" xmlns="http://www.w3.org/2000/svg" xmlns:xlink="http://www.w3.org/1999/xlink" x="0px" y="0px"
	 width="1000.637px" height="1000.678px" viewBox="0 0 1000.637 1000.678" enable-background="new 0 0 1000.637 1000.678"
	 xml:space="preserve">
<path fill="#FF3300" d="M774.078,729.765c25.022,0,45.312,20.29,45.312,45.313c0,25.022-20.289,45.312-45.312,45.312H230.312
	c-25.023,0-45.312-20.289-45.312-45.312c0-25.023,20.289-45.313,45.312-45.313V457.882C230.312,307.725,352.039,186,502.195,186
	c150.156,0,271.883,121.725,271.883,271.882V729.765z M502.195,321.941c-25.029,0-45.313,20.289-45.313,45.312v135.941
	c0,25.032,20.284,45.313,45.313,45.313c25.031,0,45.312-20.28,45.312-45.313V367.253
	C547.507,342.225,527.227,321.941,502.195,321.941z M502.195,684.443c25.031,0.098,45.38-20.115,45.476-45.147
	c0.098-25.022-20.124-45.38-45.147-45.478c-0.111,0-0.218,0-0.328,0c-25.029,0.098-45.24,20.455-45.149,45.478
	C457.133,664.192,477.297,684.366,502.195,684.443z"/>
</svg>
