<?xml version="1.0" standalone="no"?><!DOCTYPE svg PUBLIC "-//W3C//DTD SVG 1.1//EN" "http://www.w3.org/Graphics/SVG/1.1/DTD/svg11.dtd"><svg t="1567495874960" class="icon" viewBox="0 0 1024 1024" version="1.1" xmlns="http://www.w3.org/2000/svg" p-id="1916" xmlns:xlink="http://www.w3.org/1999/xlink" width="200" height="200"><defs><style type="text/css"></style></defs><path d="M512 65C265.1 65 65 265.1 65 512s200.1 447 447 447 447-200.1 447-447S758.9 65 512 65z m148.4 430.7c-18.8 26.4-43.9 47-73 60.2v176.9c0 39.8-32.4 72.2-72.2 72.2H512c-39.8 0-72.2-32.4-72.2-72.2V557.4c-66.3-28.6-109.9-94.1-109.9-167.3 0-73.4 43.7-139.3 111.3-167.9 1.3-0.6 2.7-1 4.1-1.2 2.7-1.3 5.6-2.1 8.8-2.1 11 0 20 9 20 20v126.4c0 1.7 1.5 3.2 3.2 3.2h67.1c1.7 0 3.2-1.5 3.2-3.2V239c0-11 9-20 20-20 1.6 0 3.2 0.2 4.7 0.6 2.6 0 5.2 0.4 7.7 1.4 33.4 13.4 61.8 36.2 82.3 65.9 21 30.4 32 66.1 32 103.2-0.1 38.1-11.8 74.7-33.9 105.6z" p-id="1917" fill="#d4237a"></path><path d="M587.4 269.5v95.9c0 23.8-19.4 43.2-43.2 43.2h-67.1c-23.8 0-43.2-19.4-43.2-43.2v-94.2c-39.6 26-64.1 70.3-64.1 118.9 0 60.9 38.7 115 96.4 134.6 9 3.1 14.4 11.9 13.5 20.9 0.1 0.7 0.1 1.4 0.1 2.1v185.1c0 17.8 14.4 32.2 32.2 32.2h3.2c17.8 0 32.2-14.4 32.2-32.2V547.7c0-0.9 0.1-1.7 0.2-2.6-1.2-9.1 4-18.2 13-21.4 56-20.4 93.6-74.1 93.6-133.7 0-49.8-25.6-94.8-66.8-120.5z" p-id="1918" fill="#d4237a"></path></svg>