<?xml version="1.0" standalone="no"?><!DOCTYPE svg PUBLIC "-//W3C//DTD SVG 1.1//EN" "http://www.w3.org/Graphics/SVG/1.1/DTD/svg11.dtd"><svg t="1566817846428" class="icon" viewBox="0 0 1024 1024" version="1.1" xmlns="http://www.w3.org/2000/svg" p-id="1988" xmlns:xlink="http://www.w3.org/1999/xlink" width="200" height="200"><defs><style type="text/css"></style></defs><path d="M261.632 50.176c-116.736 0-211.968 95.232-211.968 211.968s95.232 211.968 211.968 211.968h169.472a42.391 42.391 0 0 0 42.496-42.496V262.144c0.512-56.32-21.504-109.568-61.44-149.504-39.936-40.448-93.696-62.464-150.528-62.464z m331.264 423.936h169.472c116.736 0 211.968-95.232 211.968-211.968S879.104 50.176 762.368 50.176 550.4 145.408 550.4 262.144v169.472a42.391 42.391 0 0 0 42.496 42.496z m-161.792 75.776H261.632c-116.736 0-211.968 95.232-211.968 211.968s95.232 211.968 211.968 211.968S473.6 878.592 473.6 761.856V592.384c0.512-11.264-3.584-21.504-11.776-29.696-7.68-8.192-18.944-12.8-30.72-12.8z m331.264 0H592.896a42.391 42.391 0 0 0-42.496 42.496v169.472c0 116.736 95.232 211.968 211.968 211.968s211.968-95.232 211.968-211.968c0.512-56.32-21.504-109.568-61.44-149.504-39.936-40.448-93.696-62.464-150.528-62.464z" p-id="1989"></path></svg>